<svg xmlns="http://www.w3.org/2000/svg" viewBox="0 0 1000 1000" role="img" aria-label="Likya Dede — Aşık Ol"><path fill="currentColor" fill-rule="evenodd" d="M512.8 103.0C514.1 100.7 513.4 102.6 513.7 102.8C514.1 103.0 514.2 102.4 514.9 104.1C515.6 105.9 516.9 111.3 517.7 113.3C518.5 115.3 518.8 115.6 519.8 116.2C520.8 116.7 522.0 116.9 523.7 116.7C525.4 116.4 528.9 114.9 530.3 114.7C531.6 114.4 531.5 114.8 531.9 115.1C532.2 115.5 533.3 114.7 532.2 116.6C531.2 118.5 526.7 124.2 525.6 126.4C524.5 128.7 525.4 128.2 525.8 130.2C526.3 132.2 527.9 136.7 528.3 138.3C528.7 139.9 528.3 139.5 528.0 139.8C527.6 140.0 527.7 140.5 526.1 139.7C524.4 139.0 519.8 135.9 518.0 135.1C516.2 134.2 516.3 134.5 515.5 134.8C514.6 135.1 514.2 135.3 513.0 137.0C511.8 138.7 509.3 143.7 508.3 145.2C507.2 146.7 506.9 146.2 506.5 146.1C506.0 145.9 505.6 145.9 505.5 144.1C505.4 142.2 506.1 137.2 506.0 135.0C505.9 132.9 505.9 132.2 504.9 131.1C503.9 129.9 501.9 128.9 500.0 128.0C498.0 127.2 494.6 126.4 493.2 125.8C491.9 125.1 491.8 124.6 491.8 124.0C491.8 123.4 490.9 123.5 493.2 122.2C495.6 121.0 502.4 119.8 505.6 116.6C508.9 113.4 511.4 105.3 512.8 103.0ZM513.0 109.8C512.4 109.9 512.1 109.6 511.1 111.1C510.1 112.6 509.0 117.1 507.0 119.0C504.9 120.8 500.7 121.2 499.0 122.0C497.4 122.9 495.8 122.8 497.0 124.0C498.2 125.1 504.0 126.7 506.0 129.0C508.1 131.3 507.9 137.3 509.3 137.9C510.7 138.5 513.1 133.4 514.4 132.5C515.8 131.6 516.2 132.2 517.5 132.5C518.8 132.8 521.2 134.1 522.3 134.3C523.3 134.5 523.6 135.4 523.8 133.9C524.0 132.4 522.8 127.7 523.4 125.3C524.0 123.0 526.7 120.8 527.1 119.7C527.5 118.5 527.3 118.6 526.0 118.5C524.6 118.4 520.4 119.2 518.9 119.0C517.4 118.7 517.8 118.3 517.1 116.9C516.3 115.5 515.1 111.8 514.4 110.7C513.7 109.5 513.5 109.7 513.0 109.8ZM639.0 142.9C639.6 141.5 640.0 141.8 642.1 143.0C644.1 144.1 649.3 148.5 651.3 149.6C653.4 150.7 652.9 149.9 654.6 149.5C656.2 149.2 659.7 147.7 661.1 147.5C662.5 147.3 662.9 146.9 663.1 148.6C663.4 150.2 662.1 154.9 662.8 157.3C663.6 159.7 667.0 161.8 667.9 163.0C668.8 164.2 668.5 164.1 668.2 164.6C668.0 165.2 668.0 165.5 666.2 166.2C664.4 166.8 659.9 166.3 657.4 168.4C655.0 170.6 652.7 177.3 651.4 179.0C650.1 180.6 650.4 179.4 649.6 178.3C648.8 177.2 647.5 173.8 646.6 172.4C645.6 171.0 646.4 170.7 644.1 169.9C641.7 169.2 634.5 168.3 632.3 167.7C630.1 167.2 631.0 167.1 630.8 166.7C630.7 166.3 630.6 166.0 631.4 165.4C632.2 164.7 634.7 163.5 635.7 162.7C636.7 161.9 636.8 162.3 637.3 160.5C637.8 158.7 638.5 154.8 638.8 151.8C639.1 148.9 638.5 144.4 639.0 142.9ZM642.1 146.7C640.6 146.1 640.9 146.1 640.8 148.6C640.6 151.1 641.5 158.9 641.0 161.6C640.6 164.4 637.3 163.9 638.0 164.9C638.7 165.9 643.3 166.5 645.2 167.8C647.1 169.0 648.4 171.6 649.5 172.5C650.5 173.4 650.4 174.2 651.5 173.1C652.7 172.1 654.3 168.0 656.2 166.2C658.2 164.5 662.4 164.1 663.1 162.8C663.7 161.6 660.9 160.4 660.4 158.6C659.9 156.9 660.7 153.6 660.3 152.4C659.9 151.2 659.3 151.2 658.0 151.3C656.8 151.3 654.1 152.5 652.7 152.7C651.3 152.8 651.4 153.4 649.6 152.4C647.8 151.4 643.5 147.4 642.1 146.7ZM467.5 147.9C468.0 147.6 468.6 147.9 468.9 148.1C469.2 148.4 469.3 148.0 469.3 149.1C469.4 150.3 468.8 152.4 469.1 154.9C469.3 157.4 470.5 161.5 470.8 164.2C471.1 166.8 471.2 169.1 470.9 170.9C470.6 172.7 470.1 174.2 469.1 175.1C468.2 176.0 466.3 176.4 465.2 176.5C464.1 176.5 463.5 175.9 462.8 175.2C462.0 174.5 461.1 174.1 460.6 172.4C460.2 170.7 459.9 167.4 460.1 165.1C460.3 162.8 460.8 161.3 461.7 158.7C462.7 156.2 464.8 151.6 465.7 149.7C466.7 147.9 467.0 148.1 467.5 147.9ZM465.8 157.2C464.9 156.2 463.7 160.4 463.2 162.1C462.6 163.9 462.3 165.9 462.4 167.5C462.4 169.1 462.9 170.6 463.5 171.5C464.1 172.5 465.2 173.2 466.0 173.3C466.8 173.3 467.6 172.9 468.0 172.0C468.5 171.1 469.3 170.5 468.9 168.0C468.5 165.6 466.8 158.2 465.8 157.2ZM396.6 156.7C398.0 155.9 398.0 156.4 398.5 156.6C399.0 156.9 399.5 156.7 399.6 158.2C399.7 159.7 399.0 164.0 399.1 165.9C399.2 167.9 399.5 168.8 400.1 169.9C400.6 171.0 401.2 171.6 402.5 172.5C403.7 173.5 406.7 174.6 407.6 175.4C408.5 176.1 409.4 176.4 407.9 177.1C406.4 177.9 400.6 179.0 398.7 179.7C396.7 180.4 397.1 179.1 396.2 181.2C395.4 183.4 394.2 190.3 393.5 192.5C392.7 194.6 392.3 194.1 391.7 194.3C391.2 194.5 390.8 194.7 390.1 193.8C389.4 193.0 388.6 190.5 387.7 189.3C386.7 188.1 385.7 187.2 384.4 186.6C383.0 186.0 381.5 185.9 379.6 185.7C377.7 185.6 374.5 186.0 373.1 185.9C371.7 185.8 371.4 185.6 371.0 185.1C370.6 184.5 370.0 184.1 370.8 182.8C371.7 181.4 375.0 178.8 376.1 177.1C377.3 175.5 377.6 174.3 377.8 172.8C378.0 171.4 378.2 170.7 377.4 168.6C376.6 166.5 373.8 161.8 373.1 160.1C372.4 158.3 372.7 158.4 373.3 158.0C373.8 157.6 374.0 157.2 376.3 157.8C378.6 158.4 384.7 161.1 387.0 161.7C389.3 162.2 388.3 161.8 389.9 160.9C391.5 160.1 395.1 157.4 396.6 156.7ZM395.8 160.9C394.2 161.1 390.4 164.3 387.8 164.5C385.2 164.6 381.8 162.3 380.2 161.9C378.5 161.5 378.3 161.7 377.9 162.1C377.5 162.5 377.4 163.0 377.8 164.3C378.2 165.6 379.8 168.3 380.3 169.7C380.8 171.2 380.8 171.9 380.8 172.9C380.7 173.9 380.7 174.6 379.9 175.9C379.2 177.3 376.8 179.9 376.2 181.0C375.6 182.0 375.1 181.9 376.3 182.3C377.5 182.7 381.4 182.6 383.6 183.4C385.9 184.1 388.6 186.4 389.8 186.9C391.1 187.5 390.5 188.1 391.2 186.8C392.0 185.5 392.6 181.1 394.2 179.2C395.9 177.4 400.1 176.5 401.2 175.7C402.3 174.8 401.5 175.2 400.8 174.2C400.0 173.1 397.4 171.4 396.8 169.5C396.1 167.7 397.1 164.6 396.9 163.1C396.7 161.7 397.3 160.6 395.8 160.9ZM308.9 169.0C310.1 170.0 309.6 171.9 312.2 175.8C314.8 179.7 319.1 185.6 324.4 192.6C329.8 199.5 340.7 213.2 344.4 217.4C348.1 221.6 344.8 218.8 346.8 217.6C348.7 216.3 354.1 211.3 355.9 210.0C357.8 208.6 357.3 209.4 358.0 209.4C358.7 209.4 358.0 207.9 360.0 210.0C362.0 212.1 366.5 217.0 370.0 222.0C373.4 227.1 378.6 236.9 380.7 240.3C382.9 243.6 381.5 241.8 382.9 242.1C384.2 242.5 386.7 242.6 388.7 242.3C390.6 242.1 393.6 241.4 394.7 240.7C395.9 240.0 395.5 240.7 395.6 238.1C395.6 235.5 394.7 228.4 395.2 225.2C395.7 222.0 397.1 220.5 398.5 219.1C399.9 217.7 396.6 221.3 403.6 216.6C410.5 211.8 433.4 194.7 440.4 190.4C447.3 186.1 441.8 189.1 445.1 190.9C448.4 192.7 456.7 198.9 460.0 201.0C463.4 203.0 460.8 205.2 465.4 203.1C470.1 200.9 481.3 192.0 488.0 188.0C494.8 184.1 500.7 178.7 505.9 179.5C511.2 180.2 516.9 189.5 519.6 192.4C522.2 195.4 521.4 195.5 521.7 197.3C522.0 199.1 521.9 201.9 521.5 203.5C521.0 205.0 520.0 205.9 518.8 206.8C517.5 207.7 515.5 208.6 513.8 208.8C512.2 209.1 510.4 208.9 508.8 208.2C507.1 207.6 505.2 206.1 504.1 204.9C503.0 203.7 502.5 202.4 502.0 201.0C501.6 199.5 501.3 198.1 501.3 196.1C501.3 194.1 501.7 191.0 502.0 189.0C502.4 187.0 503.3 185.0 503.4 184.0C503.6 183.0 504.2 182.8 503.0 183.1C501.8 183.5 498.8 184.6 496.1 186.1C493.4 187.5 490.5 189.5 486.8 191.8C483.1 194.1 476.9 197.8 473.9 199.9C470.9 202.0 469.5 203.3 468.9 204.4C468.3 205.5 467.4 204.8 470.4 206.6C473.3 208.5 483.3 213.4 486.6 215.4C489.8 217.5 489.0 214.0 489.9 219.1C490.8 224.2 491.7 235.9 492.0 246.0C492.3 256.1 492.4 273.1 491.6 279.6C490.8 286.1 489.3 281.8 487.1 285.1C484.8 288.3 479.5 296.6 478.2 299.1C476.9 301.5 478.2 299.7 479.3 299.7C480.4 299.8 483.5 299.2 484.8 299.4C486.0 299.6 486.8 300.4 486.8 300.8C486.8 301.2 486.7 301.4 484.8 301.8C482.9 302.3 477.3 302.9 475.4 303.4C473.5 303.9 474.1 303.9 473.7 304.7C473.3 305.5 473.1 305.0 473.0 308.0C472.9 311.1 473.3 320.3 473.2 323.0C473.1 325.7 472.8 324.0 472.4 324.2C472.1 324.3 471.4 324.2 471.1 323.9C470.8 323.5 470.6 325.7 470.6 322.2C470.6 318.7 468.2 310.0 471.0 302.9C473.9 295.8 484.8 284.1 487.8 279.8C490.8 275.5 488.7 281.9 488.9 276.9C489.1 271.9 489.2 258.0 489.0 250.0C488.8 242.0 488.2 233.8 487.9 229.1C487.6 224.4 487.7 223.3 487.3 221.8C486.9 220.4 488.5 220.2 485.8 220.3C483.1 220.5 474.5 222.6 471.0 222.6C467.5 222.6 466.5 220.7 464.7 220.3C462.9 219.9 463.2 219.8 460.1 220.1C457.0 220.3 450.3 221.6 445.9 221.9C441.6 222.3 438.7 221.9 434.1 222.1C429.5 222.3 422.7 222.7 418.2 223.2C413.6 223.6 410.3 224.6 406.9 224.9C403.6 225.2 399.6 224.0 398.0 225.0C396.4 226.0 397.3 228.3 397.4 230.9C397.5 233.5 396.6 236.3 398.6 240.4C400.6 244.5 407.4 252.5 409.4 255.6C411.4 258.7 410.2 254.0 410.8 259.2C411.4 264.4 412.7 278.4 413.0 287.0C413.3 295.7 413.0 306.6 412.8 311.1C412.6 315.6 412.0 313.5 411.6 314.0C411.2 314.4 410.6 314.0 410.2 313.7C409.9 313.3 409.5 316.3 409.5 312.1C409.5 307.8 410.2 296.5 410.0 288.0C409.7 279.5 408.4 266.0 407.9 261.1C407.4 256.3 407.7 259.5 407.0 259.0C406.4 258.5 406.4 258.2 404.0 258.0C401.5 257.9 398.9 257.7 392.1 258.1C385.3 258.4 368.4 259.6 363.1 260.1C357.8 260.6 360.8 260.4 360.3 261.0C359.7 261.5 359.4 255.5 359.8 263.4C360.3 271.2 362.6 299.9 363.0 308.0C363.4 316.1 362.5 311.3 362.1 311.9C361.7 312.5 361.0 313.6 360.5 311.4C360.0 309.2 359.3 303.6 359.1 298.9C358.8 294.2 359.4 289.4 358.9 283.1C358.5 276.8 356.5 265.4 356.4 261.2C356.3 257.1 357.0 259.1 358.2 258.2C359.4 257.3 361.1 257.3 363.7 255.7C366.2 254.1 371.5 250.1 373.5 248.5C375.5 246.9 375.3 246.7 375.6 246.2C375.9 245.7 379.5 245.3 375.3 245.4C371.1 245.4 357.0 246.4 350.6 246.5C344.3 246.6 342.3 245.9 337.0 246.0C331.8 246.1 322.5 246.8 319.1 247.1C315.6 247.4 316.6 240.2 316.3 248.0C315.9 255.8 317.0 283.7 317.0 294.0C317.0 304.3 316.6 307.0 316.3 309.9C316.1 312.7 315.9 311.0 315.5 311.0C315.2 311.1 314.7 310.9 314.5 310.4C314.2 309.8 314.0 313.4 314.0 308.0C314.1 302.6 315.1 284.7 315.0 278.0C314.9 271.3 314.2 269.4 313.6 267.6C313.0 265.7 316.5 266.3 311.5 266.7C306.4 267.1 287.8 268.9 283.2 269.8C278.6 270.7 282.1 270.6 283.8 272.2C285.6 273.8 291.6 277.4 293.7 279.3C295.8 281.2 295.6 277.7 296.6 283.4C297.7 289.0 299.4 306.9 299.9 313.1C300.4 319.2 299.8 319.1 299.6 320.3C299.3 321.6 298.6 321.0 298.2 320.6C297.8 320.2 297.6 321.9 297.2 317.8C296.8 313.8 296.3 301.6 295.8 296.2C295.3 290.7 298.8 286.8 294.2 285.1C289.5 283.5 274.1 285.6 268.1 286.1C262.1 286.6 260.0 287.3 258.1 288.1C256.3 289.0 257.3 289.5 257.1 291.1C256.9 292.7 256.7 295.5 257.1 297.9C257.5 300.3 256.8 300.5 259.5 305.5C262.2 310.5 271.1 324.0 273.2 328.0C275.4 331.9 272.8 329.0 272.3 329.3C271.7 329.7 272.6 329.8 269.9 329.9C267.2 330.0 260.4 329.9 256.1 330.1C251.8 330.3 247.3 330.8 244.3 331.3C241.3 331.8 239.4 332.6 238.1 333.1C236.8 333.7 236.9 333.8 236.6 334.6C236.2 335.4 235.9 334.7 236.1 337.9C236.3 341.2 237.6 347.9 237.9 354.1C238.2 360.3 237.8 368.3 238.0 375.0C238.2 381.7 239.2 390.9 239.2 394.4C239.2 397.9 238.5 396.0 238.1 396.1C237.8 396.1 237.6 396.7 237.2 394.7C236.9 392.7 236.3 390.7 236.1 383.9C235.9 377.1 236.2 361.3 236.0 354.0C235.8 346.7 235.4 343.8 234.8 340.2C234.3 336.5 232.1 334.8 232.6 332.2C233.0 329.6 234.3 328.6 237.4 324.4C240.5 320.3 248.4 310.9 251.1 307.1C253.9 303.4 253.5 303.8 254.1 302.1C254.8 300.4 255.0 299.4 255.0 297.0C254.9 294.6 253.8 289.8 253.7 287.9C253.6 285.9 250.0 289.3 254.3 285.3C258.7 281.3 271.5 271.5 279.7 263.7C288.0 256.0 298.7 244.2 303.7 238.7C308.8 233.3 308.5 232.4 310.0 231.1C311.6 229.8 311.6 230.0 313.0 231.1C314.4 232.2 317.1 236.4 318.4 237.6C319.6 238.8 316.6 241.0 320.6 238.2C324.6 235.3 338.8 223.9 342.3 220.5C345.8 217.0 347.0 224.2 341.7 217.3C336.3 210.4 315.9 185.3 310.4 179.0C304.9 172.7 309.1 179.1 308.6 179.7C308.1 180.2 308.0 179.2 307.5 182.5C306.9 185.7 306.5 195.1 305.3 199.3C304.0 203.4 301.7 205.5 300.2 207.2C298.7 208.9 297.6 208.9 296.3 209.3C295.1 209.7 293.9 209.8 292.5 209.5C291.1 209.1 289.2 208.1 287.9 207.1C286.5 206.1 285.4 205.0 284.5 203.5C283.6 202.1 282.8 200.1 282.5 198.5C282.1 197.0 282.0 195.8 282.2 194.2C282.3 192.5 282.8 190.3 283.5 188.5C284.1 186.6 284.8 184.6 285.9 182.9C287.1 181.2 288.4 179.9 290.3 178.3C292.2 176.7 295.0 174.9 297.4 173.4C299.8 172.0 302.8 170.5 304.7 169.7C306.6 169.0 307.6 168.0 308.9 169.0ZM303.9 173.7C303.0 173.8 302.3 173.7 300.0 175.0C297.8 176.4 292.7 180.0 290.6 181.6C288.6 183.3 288.6 183.6 287.8 184.8C287.0 186.0 286.4 187.2 285.9 188.9C285.3 190.6 284.6 193.2 284.6 195.0C284.5 196.8 285.0 198.2 285.6 199.4C286.1 200.7 286.8 202.1 287.8 202.7C288.8 203.3 291.0 202.5 291.8 203.1C292.6 203.7 292.2 205.8 292.8 206.4C293.4 206.9 294.6 206.6 295.4 206.4C296.3 206.1 296.8 206.3 297.9 204.9C299.0 203.5 301.0 201.9 302.1 198.1C303.1 194.3 303.6 185.7 304.2 182.2C304.8 178.7 305.5 178.1 305.7 176.9C305.9 175.7 305.6 175.3 305.3 174.7C305.0 174.2 304.8 173.7 303.9 173.7ZM759.6 174.8C761.2 173.4 761.1 174.6 762.0 176.0C763.0 177.3 764.3 181.4 765.1 182.9C765.9 184.4 766.0 184.5 766.9 185.0C767.8 185.4 768.7 185.6 770.4 185.6C772.1 185.5 775.6 184.5 777.1 184.5C778.5 184.5 778.9 185.0 779.1 185.5C779.4 186.1 779.7 186.3 778.6 187.7C777.6 189.1 774.0 192.3 772.8 193.8C771.6 195.2 771.6 195.2 771.4 196.4C771.2 197.5 771.0 198.7 771.5 200.5C772.0 202.3 773.9 205.9 774.2 207.4C774.5 208.8 773.9 209.0 773.4 209.2C772.8 209.5 772.5 209.9 770.9 209.0C769.3 208.2 765.4 205.2 763.8 204.2C762.2 203.3 762.1 203.4 761.2 203.6C760.2 203.7 759.4 204.1 758.0 205.0C756.7 205.9 754.3 208.3 753.1 209.0C751.9 209.7 751.2 209.4 750.7 209.3C750.2 209.1 749.9 209.3 749.9 208.1C749.9 206.9 750.9 204.0 751.0 202.0C751.0 199.9 750.8 197.1 750.3 195.7C749.9 194.3 750.0 194.7 748.3 193.7C746.6 192.7 741.3 190.5 740.0 189.5C738.6 188.6 740.0 188.6 740.4 188.2C740.7 187.8 740.2 187.8 742.2 187.2C744.1 186.5 749.4 186.3 752.3 184.3C755.2 182.2 757.9 176.2 759.6 174.8ZM759.9 179.9C759.5 179.9 759.1 179.9 758.6 180.7C758.1 181.6 757.5 183.9 756.9 184.9C756.3 186.0 756.6 186.5 755.0 187.0C753.5 187.6 748.9 187.9 747.4 188.4C746.0 188.8 745.3 188.5 746.2 189.6C747.1 190.7 751.8 192.8 753.0 194.9C754.1 196.9 753.0 200.3 753.2 201.8C753.4 203.3 753.0 204.0 754.3 203.9C755.6 203.8 758.6 201.3 761.0 201.2C763.4 201.1 767.2 203.1 768.6 203.3C770.0 203.5 769.2 203.6 769.2 202.3C769.2 201.0 767.9 197.8 768.7 195.5C769.5 193.3 774.4 190.4 773.8 188.9C773.2 187.5 767.1 188.4 765.0 187.0C762.9 185.7 762.1 182.0 761.3 180.8C760.4 179.6 760.4 179.9 759.9 179.9ZM566.2 180.6C567.6 180.4 567.6 180.8 567.9 181.2C568.3 181.5 568.8 181.6 568.4 182.8C567.9 183.9 565.9 186.5 565.2 188.2C564.6 189.9 564.5 191.6 564.4 192.8C564.3 194.0 564.4 194.4 564.8 195.3C565.2 196.2 565.6 197.3 566.8 198.2C568.0 199.0 570.4 200.2 572.0 200.4C573.6 200.6 574.7 200.0 576.3 199.3C577.8 198.5 580.1 196.2 581.3 195.9C582.5 195.6 583.2 196.6 583.4 197.4C583.7 198.2 583.6 199.4 583.0 201.0C582.3 202.5 580.7 205.0 579.6 206.6C578.4 208.1 577.3 209.3 576.1 210.1C575.0 211.0 574.3 211.4 572.7 211.7C571.0 212.0 568.1 212.1 566.2 211.8C564.2 211.5 562.8 211.1 561.1 209.9C559.3 208.8 557.2 206.8 555.9 205.1C554.6 203.4 553.7 201.8 553.3 199.7C552.9 197.6 553.0 194.7 553.4 192.4C553.9 190.2 555.0 187.6 556.0 186.0C557.1 184.4 558.0 183.6 559.7 182.7C561.4 181.8 564.9 180.9 566.2 180.6ZM561.7 184.8C561.1 185.1 559.2 186.2 558.3 187.3C557.4 188.4 556.7 189.6 556.2 191.2C555.7 192.8 555.2 195.2 555.2 196.9C555.3 198.6 555.9 199.8 556.7 201.3C557.5 202.8 559.1 204.6 560.3 205.7C561.4 206.9 562.3 207.7 563.8 208.2C565.2 208.8 567.1 209.0 568.9 208.9C570.7 208.8 573.1 208.1 574.5 207.5C575.8 206.8 576.6 205.8 577.0 205.1C577.5 204.4 578.6 203.5 577.1 203.1C575.5 202.6 570.1 203.1 567.8 202.2C565.4 201.4 564.1 199.4 563.1 197.9C562.1 196.5 561.9 195.6 561.8 193.6C561.6 191.5 562.3 187.3 562.3 185.9C562.3 184.4 562.4 184.6 561.7 184.8ZM691.2 184.0C696.0 181.0 692.6 184.0 693.9 186.1C695.3 188.1 698.6 193.9 699.5 196.5C700.4 199.1 700.0 199.8 699.5 201.5C699.0 203.2 697.8 205.3 696.5 206.5C695.2 207.7 693.2 208.4 691.8 208.8C690.5 209.2 689.3 208.8 688.4 208.6C687.5 208.4 687.0 208.4 686.4 207.6C685.9 206.8 685.2 206.0 685.1 203.9C684.9 201.8 685.6 196.8 685.6 195.2C685.6 193.5 685.5 194.3 685.2 194.1C684.8 193.9 689.2 190.1 683.6 193.9C678.1 197.7 657.7 212.5 651.8 216.8C646.0 221.2 649.2 219.2 648.8 220.2C648.4 221.1 648.4 220.7 649.5 222.6C650.5 224.4 654.3 229.2 655.2 231.4C656.0 233.5 654.4 232.5 654.7 235.5C655.0 238.5 656.3 242.4 656.8 249.2C657.4 255.9 657.6 269.9 658.1 275.9C658.5 282.0 658.6 284.6 659.5 285.5C660.4 286.5 661.5 284.3 663.7 281.7C665.9 279.1 671.2 273.7 672.7 269.7C674.3 265.8 673.1 261.8 673.0 258.0C672.8 254.2 672.0 249.8 672.0 247.0C672.1 244.2 668.7 246.2 673.2 241.2C677.7 236.2 693.3 221.8 698.8 216.8C704.3 211.7 704.7 211.8 706.3 210.9C707.9 210.0 707.9 211.1 708.6 211.5C709.3 211.9 708.1 209.6 710.6 213.4C713.1 217.2 720.4 229.6 723.6 234.4C726.8 239.2 728.3 238.7 729.8 242.2C731.3 245.7 732.0 250.7 732.7 255.3C733.5 259.9 733.8 267.1 734.2 269.7C734.7 272.3 734.1 271.4 735.2 271.1C736.3 270.7 738.2 270.0 740.7 267.7C743.2 265.4 746.8 260.8 750.3 257.3C753.8 253.8 754.0 253.0 761.9 246.9C769.7 240.8 791.3 225.0 797.5 220.7C803.8 216.4 798.9 220.5 799.4 220.8C799.9 221.1 800.0 219.9 800.6 222.4C801.2 224.9 801.9 232.1 803.0 236.0C804.1 239.9 806.1 243.0 807.1 245.9C808.1 248.7 808.7 251.1 808.9 253.1C809.2 255.0 809.0 256.3 808.7 257.7C808.4 259.1 808.0 260.1 807.3 261.3C806.6 262.5 805.7 263.7 804.7 264.7C803.6 265.6 802.3 266.3 801.0 267.0C799.7 267.7 798.0 268.4 796.7 268.7C795.4 269.0 794.5 268.9 793.3 268.7C792.1 268.5 790.7 268.1 789.5 267.5C788.4 266.8 787.3 266.3 786.3 264.7C785.3 263.1 783.8 260.5 783.3 257.7C782.8 255.0 782.9 250.7 783.2 248.2C783.4 245.7 783.5 245.5 784.7 242.7C785.9 239.9 789.3 233.5 790.1 231.4C791.0 229.3 792.7 228.3 789.6 230.2C786.5 232.0 776.6 238.7 771.4 242.4C766.3 246.2 764.1 247.9 758.8 252.8C753.5 257.7 743.5 267.9 739.8 271.8C736.0 275.7 736.9 274.9 736.2 276.2C735.4 277.4 735.3 276.2 735.1 279.1C734.9 282.1 734.8 289.8 735.1 293.9C735.3 298.0 734.4 304.9 736.5 303.5C738.6 302.2 745.5 288.8 747.6 285.6C749.7 282.4 748.5 284.4 749.0 284.1C749.5 283.8 750.0 283.6 750.7 283.7C751.3 283.9 751.3 283.3 752.7 285.3C754.2 287.3 757.2 292.3 759.4 295.6C761.7 298.8 764.6 302.6 766.3 304.7C768.1 306.8 769.2 307.1 770.0 308.0C770.7 309.0 770.6 306.2 770.8 310.2C771.0 314.2 771.1 326.5 771.0 332.0C770.9 337.5 770.1 332.5 770.0 343.0C769.9 353.5 768.5 378.5 770.4 394.9C772.4 411.3 779.8 431.4 781.7 441.3C783.6 451.1 782.1 450.0 782.0 454.0C781.9 457.9 780.6 457.7 781.1 464.9C781.6 472.1 784.4 488.2 785.0 497.0C785.6 505.8 785.2 512.7 785.0 518.0C784.7 523.2 784.2 525.0 783.6 528.6C783.0 532.1 782.6 535.0 781.3 539.3C779.9 543.6 777.7 549.8 775.3 554.3C773.0 558.8 769.4 563.2 767.1 566.1C764.9 569.1 765.1 569.1 761.9 571.9C758.7 574.7 752.0 580.2 748.0 583.0C744.0 585.8 739.9 587.6 737.9 588.9C736.0 590.3 736.5 590.3 736.4 591.2C736.2 592.1 735.7 591.6 736.7 594.3C737.8 597.0 741.3 604.1 742.6 607.4C743.9 610.8 744.1 611.5 744.6 614.4C745.0 617.4 745.3 622.1 745.3 625.1C745.3 628.2 745.7 627.8 744.8 632.8C744.0 637.9 741.6 650.0 740.4 655.4C739.1 660.8 738.6 662.1 737.3 665.3C736.0 668.5 735.0 671.4 732.8 674.8C730.6 678.2 724.0 681.9 724.0 685.8C724.0 689.6 730.9 694.6 732.9 698.1C734.9 701.6 733.9 703.1 736.1 706.9C738.2 710.8 743.7 717.6 745.6 721.4C747.6 725.1 747.5 726.4 747.8 729.2C748.2 731.9 748.2 735.1 747.7 737.7C747.3 740.4 746.2 743.1 745.1 745.1C744.0 747.1 743.8 747.7 741.0 750.0C738.1 752.3 730.4 756.8 727.9 758.9C725.4 760.9 726.0 761.0 725.8 762.2C725.6 763.4 725.2 763.8 726.9 766.1C728.6 768.4 734.2 773.4 736.1 775.9C738.0 778.3 737.9 778.5 738.3 780.7C738.8 782.8 739.2 785.9 738.8 788.8C738.5 791.8 737.4 795.6 736.3 798.3C735.2 801.0 733.6 803.1 732.1 805.1C730.7 807.2 729.1 808.9 727.5 810.5C725.9 812.1 724.6 813.2 722.6 814.6C720.5 815.9 719.8 816.9 715.4 818.4C711.1 819.9 705.3 821.7 696.6 823.6C687.8 825.5 668.8 828.3 662.9 829.9C656.9 831.4 661.7 829.4 660.8 832.8C660.0 836.3 658.8 846.4 657.7 850.7C656.7 855.1 655.7 857.0 654.8 858.8C653.9 860.5 653.7 860.8 652.3 861.3C651.0 861.8 648.4 861.4 646.6 861.9C644.9 862.5 645.0 863.9 641.8 864.5C638.6 865.1 629.9 865.5 627.2 865.4C624.5 865.4 626.3 865.2 625.7 864.3C625.1 863.4 625.0 860.2 623.8 860.0C622.6 859.8 619.6 862.6 618.4 863.1C617.2 863.6 617.2 863.2 616.6 863.1C616.0 862.9 615.4 862.6 615.1 861.9C614.7 861.3 614.3 860.3 614.4 859.2C614.5 858.2 614.1 858.2 615.7 855.7C617.3 853.2 622.3 847.1 624.2 844.2C626.1 841.3 626.8 839.7 627.1 838.4C627.5 837.1 627.0 836.9 626.4 836.5C625.7 836.1 625.1 835.9 623.0 836.0C620.9 836.1 620.3 836.8 614.0 837.0C607.6 837.1 591.8 836.8 585.0 837.0C578.2 837.2 584.2 836.5 573.2 838.2C562.1 839.8 531.8 844.8 518.7 846.7C505.6 848.6 504.9 849.5 494.7 849.4C484.6 849.4 470.6 846.9 457.6 846.5C444.7 846.1 427.0 846.6 417.0 847.0C407.1 847.4 403.3 848.7 398.0 849.0C392.7 849.3 390.8 849.2 385.0 849.0C379.2 848.7 367.2 847.3 363.2 847.4C359.2 847.4 362.8 845.5 361.2 849.2C359.6 852.9 355.4 865.9 353.8 869.8C352.3 873.8 353.1 872.2 351.8 872.8C350.5 873.4 347.7 873.7 346.3 873.7C345.0 873.6 344.8 873.3 343.7 872.3C342.6 871.3 341.5 868.3 339.7 867.6C337.9 866.9 335.2 868.8 332.8 868.1C330.4 867.5 327.8 865.8 325.0 864.0C322.3 862.1 317.9 858.5 316.2 856.8C314.4 855.2 314.6 854.8 314.4 853.9C314.2 853.1 314.5 852.6 315.0 851.9C315.4 851.3 314.6 851.4 316.9 849.9C319.2 848.3 326.5 844.2 328.7 842.7C330.9 841.2 330.0 841.2 330.1 840.7C330.2 840.1 332.7 840.4 329.4 839.4C326.2 838.3 315.9 835.9 310.6 834.4C305.4 832.8 301.1 831.3 298.0 830.0C295.0 828.7 295.9 829.1 292.4 826.6C289.0 824.0 280.6 817.0 277.3 814.7C274.0 812.3 276.3 813.7 272.5 812.5C268.8 811.2 259.0 809.0 254.9 807.1C250.7 805.3 249.7 803.6 247.9 801.1C246.0 798.7 244.6 795.4 243.6 792.4C242.7 789.3 242.0 786.6 242.0 783.0C242.0 779.3 242.8 773.7 243.4 770.4C244.0 767.2 244.5 766.0 245.7 763.7C246.8 761.4 249.6 758.2 250.5 756.6C251.4 755.0 252.5 756.6 251.2 754.2C249.9 751.8 245.4 747.3 242.7 742.3C239.9 737.3 236.6 730.2 234.6 724.4C232.7 718.5 231.6 712.7 231.0 707.0C230.4 701.3 230.8 694.6 231.1 690.1C231.4 685.6 232.6 682.3 232.8 679.8C233.1 677.4 232.8 676.4 232.6 675.4C232.4 674.3 233.0 674.9 231.6 673.4C230.2 671.9 226.6 669.4 224.4 666.6C222.2 663.8 220.1 660.7 218.4 656.6C216.7 652.4 215.3 647.5 214.3 641.7C213.2 636.0 212.2 629.7 212.0 622.0C211.8 614.2 212.4 602.2 213.2 595.2C213.9 588.1 215.0 585.4 216.7 579.7C218.3 573.9 220.2 567.4 222.9 560.9C225.6 554.4 230.5 544.8 232.7 540.7C234.9 536.6 235.5 536.6 236.0 536.2C236.6 535.7 237.8 533.9 235.9 538.0C234.0 542.1 227.2 555.1 224.7 560.7C222.2 566.3 222.3 566.0 220.7 571.7C219.2 577.5 216.4 586.6 215.3 595.3C214.2 604.0 214.1 616.9 214.1 623.8C214.2 630.7 214.6 631.7 215.4 636.6C216.3 641.4 218.0 649.0 219.2 652.8C220.3 656.7 221.0 657.2 222.4 659.6C223.9 662.0 225.5 664.6 227.9 667.1C230.2 669.6 232.4 671.6 236.4 674.6C240.5 677.5 248.3 682.5 252.2 684.8C256.1 687.1 256.1 687.1 259.7 688.3C263.4 689.5 269.9 690.6 274.1 691.9C278.3 693.2 282.2 694.7 284.9 696.1C287.7 697.5 288.6 698.2 290.7 700.3C292.9 702.3 296.8 707.0 298.0 708.5C299.1 710.0 297.9 709.2 297.6 709.2C297.4 709.3 297.5 709.7 296.3 708.6C295.0 707.6 292.5 704.7 290.1 702.9C287.8 701.0 285.2 699.2 282.3 697.7C279.5 696.2 276.6 694.9 273.1 693.9C269.7 692.8 264.9 692.3 261.6 691.4C258.4 690.4 257.7 690.5 253.7 688.3C249.7 686.1 240.7 680.0 237.8 678.3C234.9 676.5 236.6 677.9 236.2 677.9C235.8 678.0 235.9 676.6 235.4 678.6C234.9 680.7 233.6 685.8 233.2 690.2C232.8 694.5 232.8 700.9 233.1 704.9C233.3 709.0 233.7 710.6 234.6 714.4C235.5 718.2 236.7 723.1 238.4 727.6C240.1 732.0 243.0 737.7 244.9 741.1C246.8 744.6 246.8 744.7 249.9 748.1C252.9 751.6 259.8 758.4 263.3 761.7C266.8 765.1 267.5 765.7 270.9 768.1C274.2 770.6 279.9 774.4 283.4 776.6C286.9 778.7 287.4 779.3 291.9 781.1C296.4 782.9 305.4 786.2 310.3 787.5C315.2 788.8 317.6 788.7 321.1 788.9C324.5 789.2 324.8 789.6 331.0 789.0C337.1 788.3 351.0 785.9 358.2 785.2C365.3 784.4 367.9 784.4 373.9 784.4C379.8 784.4 386.4 784.3 393.8 785.2C401.2 786.0 411.4 788.7 418.3 789.7C425.1 790.7 428.7 791.0 435.0 791.0C441.3 791.0 449.2 790.6 455.8 789.8C462.4 789.1 469.3 787.6 474.6 786.6C479.9 785.5 479.2 785.9 487.6 783.6C495.9 781.2 515.9 774.5 524.6 772.6C533.3 770.7 537.8 771.8 539.8 771.9C541.8 772.1 539.8 772.8 536.5 773.5C533.3 774.3 529.3 774.1 520.4 776.4C511.6 778.8 495.0 784.8 483.5 787.5C472.1 790.3 462.3 792.0 451.9 792.9C441.5 793.8 430.9 793.7 421.1 792.9C411.3 792.1 403.5 788.8 393.0 788.0C382.5 787.2 367.4 787.5 358.0 788.0C348.7 788.5 344.1 790.4 336.9 790.9C329.8 791.4 321.2 791.5 315.1 790.9C309.0 790.4 305.9 789.5 300.5 787.5C295.1 785.6 288.1 782.4 282.7 779.3C277.3 776.2 271.4 771.7 267.9 769.1C264.3 766.5 263.3 765.7 261.3 763.7C259.2 761.8 256.8 758.7 255.5 757.6C254.2 756.4 254.3 756.5 253.4 756.9C252.5 757.3 251.2 758.3 250.0 760.0C248.8 761.7 247.3 764.6 246.3 767.3C245.3 770.0 244.5 773.4 244.2 776.2C243.8 778.9 243.9 781.9 244.0 784.0C244.1 786.0 244.0 786.1 244.7 788.3C245.3 790.6 246.7 795.2 247.7 797.3C248.7 799.5 249.6 800.1 250.8 801.2C251.9 802.4 250.1 802.6 254.7 804.3C259.3 806.1 271.5 808.2 278.3 811.7C285.2 815.2 292.3 822.5 295.9 825.1C299.4 827.7 297.1 826.2 299.7 827.3C302.4 828.3 302.2 828.6 311.7 831.3C321.1 834.1 345.9 841.3 356.4 843.6C367.0 845.8 367.6 844.7 375.0 845.0C382.5 845.2 390.8 845.3 401.0 845.0C411.2 844.7 425.7 843.4 436.0 843.0C446.4 842.7 453.2 842.5 463.0 843.0C472.8 843.5 486.4 845.9 495.0 846.0C503.6 846.1 501.5 845.7 514.7 843.7C527.9 841.7 561.8 835.9 574.2 834.2C586.5 832.4 584.2 833.2 589.0 833.2C593.8 833.1 597.0 833.9 603.0 833.9C608.9 833.8 616.2 833.9 624.8 832.8C633.5 831.8 648.1 829.0 654.7 827.7C661.3 826.5 657.6 826.5 664.3 825.3C670.9 824.1 687.1 821.9 694.6 820.6C702.0 819.2 704.8 818.5 709.1 817.1C713.4 815.7 717.4 814.0 720.3 812.3C723.3 810.6 724.7 809.2 726.9 806.9C729.1 804.6 731.8 800.9 733.3 798.3C734.8 795.6 735.5 793.5 735.8 790.8C736.2 788.2 736.0 784.8 735.5 782.5C735.0 780.2 734.6 779.7 732.7 777.3C730.8 774.9 725.8 770.1 724.1 767.9C722.4 765.8 722.8 765.6 722.5 764.5C722.2 763.4 721.9 762.6 722.3 761.3C722.7 760.0 722.2 759.1 724.9 756.9C727.5 754.7 735.2 750.4 738.1 748.1C741.1 745.9 741.4 745.3 742.6 743.6C743.7 741.8 744.5 740.2 744.8 737.8C745.2 735.4 745.3 731.9 744.8 729.2C744.4 726.5 744.2 725.1 742.3 721.7C740.4 718.2 735.6 712.3 733.5 708.5C731.5 704.7 732.1 702.3 730.1 698.9C728.0 695.5 723.0 689.9 721.2 688.2C719.4 686.4 722.3 686.8 719.1 688.3C716.0 689.8 708.3 694.7 702.3 697.3C696.2 699.9 689.4 701.9 682.8 703.8C676.2 705.7 671.6 707.1 662.7 708.7C653.8 710.3 637.2 712.1 629.4 713.4C621.6 714.8 620.3 715.1 615.9 716.9C611.5 718.6 607.1 721.0 603.0 724.0C598.9 727.1 593.5 733.3 591.5 735.2C589.4 737.1 590.7 735.6 590.5 735.6C590.4 735.5 589.8 735.9 590.4 734.8C590.9 733.7 592.2 730.9 593.9 728.9C595.5 726.8 598.1 724.1 600.3 722.3C602.5 720.5 604.6 719.1 606.9 717.9C609.1 716.6 610.7 715.7 613.6 714.6C616.5 713.5 617.6 712.4 624.3 711.3C631.0 710.1 645.5 709.0 653.7 707.7C661.9 706.4 667.4 704.9 673.4 703.4C679.4 701.9 684.4 700.4 689.6 698.6C694.9 696.9 700.4 695.0 705.0 693.0C709.6 690.9 714.1 688.1 717.2 686.2C720.3 684.3 721.4 683.2 723.4 681.4C725.4 679.5 727.4 677.4 729.1 675.1C730.8 672.8 732.1 670.9 733.6 667.6C735.0 664.2 736.4 661.2 737.9 654.9C739.4 648.6 741.9 635.0 742.7 629.7C743.6 624.4 743.3 626.3 743.0 623.0C742.7 619.7 742.7 615.0 741.1 609.9C739.5 604.7 737.3 594.2 733.5 592.1C729.7 590.0 723.1 595.9 718.4 597.4C713.6 598.8 715.7 598.9 704.8 600.8C693.8 602.6 662.8 607.3 652.7 608.7C642.6 610.1 647.0 608.9 644.3 609.3C641.5 609.7 638.5 610.5 636.3 611.3C634.0 612.0 631.2 613.9 630.9 613.8C630.5 613.6 632.5 611.3 634.2 610.2C636.0 609.2 629.5 609.5 641.5 607.5C653.4 605.4 692.1 600.1 705.7 597.7C719.3 595.3 719.0 594.2 723.0 593.0C726.9 591.7 725.6 592.1 729.3 590.3C732.9 588.4 739.6 585.1 744.8 581.8C750.0 578.5 756.5 573.5 760.2 570.2C764.0 567.0 764.7 565.8 767.2 562.2C769.7 558.5 773.1 553.2 775.3 548.3C777.5 543.3 779.3 537.3 780.5 532.5C781.7 527.7 782.3 525.6 782.7 519.7C783.1 513.8 783.4 505.6 783.0 497.0C782.5 488.4 780.6 473.2 779.9 468.1C779.3 463.0 781.3 462.1 779.1 466.3C777.0 470.4 769.3 488.1 767.0 493.0C764.7 497.9 765.7 495.4 765.2 495.7C764.8 496.0 762.3 500.8 764.5 494.9C766.7 489.0 775.6 467.8 778.3 460.3C780.9 452.7 780.1 452.5 780.4 449.6C780.7 446.7 780.5 445.5 780.2 442.6C779.9 439.8 780.2 440.2 778.4 432.6C776.6 425.0 771.1 403.8 769.2 396.8C767.2 389.9 767.0 399.7 766.6 390.9C766.3 382.1 766.7 354.9 767.0 344.0C767.3 333.2 768.3 331.4 768.4 326.0C768.5 320.6 768.1 314.1 767.6 311.4C767.2 308.6 766.5 309.8 765.6 309.4C764.7 309.0 766.3 308.9 762.0 309.0C757.7 309.1 744.2 309.7 740.0 310.0C735.9 310.4 737.6 310.5 737.0 311.0C736.4 311.4 736.2 308.3 736.4 312.8C736.6 317.3 737.8 333.3 738.0 338.0C738.1 342.6 737.6 340.4 737.2 340.8C736.8 341.2 736.2 342.1 735.7 340.3C735.1 338.4 734.7 337.3 734.1 329.9C733.5 322.5 732.4 304.9 732.0 296.0C731.7 287.0 732.3 282.9 731.9 276.1C731.5 269.3 730.5 260.5 729.7 255.3C729.0 250.0 728.1 246.7 727.4 244.6C726.7 242.5 726.3 243.1 725.4 242.6C724.5 242.2 729.7 242.0 722.0 242.0C714.3 242.1 686.7 242.7 679.1 243.1C671.4 243.4 676.8 243.6 676.1 244.1C675.5 244.7 675.4 243.9 675.2 246.2C675.0 248.5 674.8 253.4 675.1 257.9C675.3 262.4 673.7 268.3 676.7 273.3C679.6 278.4 689.7 285.3 692.7 288.3C695.7 291.3 693.9 289.6 694.6 291.4C695.3 293.2 696.1 293.4 697.0 299.0C697.9 304.6 699.3 318.2 699.9 325.1C700.5 331.9 700.7 337.3 700.6 340.2C700.5 343.0 700.0 342.0 699.6 342.3C699.1 342.6 698.3 342.4 697.9 342.0C697.5 341.6 697.3 342.7 697.1 339.9C697.0 337.1 697.2 329.5 697.0 325.0C696.8 320.6 696.2 316.9 695.8 313.2C695.4 309.4 695.1 305.7 694.6 302.4C694.0 299.2 693.0 295.3 692.4 293.6C691.8 291.9 691.6 292.4 691.0 292.0C690.4 291.6 691.5 291.3 688.9 291.3C686.2 291.3 680.2 291.6 675.1 292.1C670.0 292.6 661.5 293.5 658.4 294.4C655.3 295.3 656.5 295.5 656.2 297.2C655.9 298.9 655.3 301.1 656.6 304.4C657.9 307.7 662.3 313.8 664.0 317.0C665.7 320.2 665.9 320.3 666.5 323.5C667.2 326.6 667.7 332.4 667.9 336.1C668.1 339.8 668.2 344.3 667.9 345.8C667.6 347.4 666.8 346.0 666.4 345.4C666.0 344.9 665.7 344.9 665.4 342.6C665.2 340.2 665.2 334.4 664.8 331.2C664.4 327.9 663.7 324.7 663.1 322.9C662.5 321.2 662.1 321.2 661.3 320.7C660.5 320.2 662.6 319.7 658.0 320.1C653.5 320.5 638.8 322.5 634.3 323.3C629.7 324.1 631.6 324.1 630.7 324.7C629.9 325.4 629.6 326.1 629.2 327.2C628.7 328.2 628.4 327.9 628.2 331.2C627.9 334.4 627.9 343.9 627.8 346.7C627.6 349.5 627.5 347.6 627.2 347.8C626.9 348.0 626.4 348.2 626.0 347.7C625.7 347.3 625.3 346.4 625.1 344.9C624.9 343.5 624.8 342.4 625.0 339.0C625.3 335.7 625.4 328.1 626.6 324.6C627.9 321.2 629.8 322.0 632.4 318.4C635.0 314.8 640.5 306.1 642.2 303.2C644.0 300.3 643.0 303.7 642.9 300.9C642.8 298.0 642.5 291.2 641.8 286.2C641.2 281.1 640.0 274.2 639.2 270.8C638.4 267.4 638.0 267.0 637.1 265.9C636.2 264.8 643.5 264.2 633.8 264.2C624.2 264.2 589.0 265.7 579.2 266.1C569.4 266.6 576.2 266.4 575.2 266.7C574.2 267.1 573.9 267.0 573.4 268.4C572.9 269.8 572.2 269.8 572.0 275.0C571.8 280.3 571.9 294.9 572.2 299.8C572.4 304.7 571.6 300.2 573.7 304.3C575.7 308.4 582.4 318.1 584.5 324.5C586.6 330.9 585.7 338.4 586.3 342.7C586.9 347.0 588.1 348.6 588.1 350.1C588.2 351.7 587.2 351.8 586.7 352.0C586.3 352.2 585.8 352.0 585.3 351.5C584.9 351.0 584.8 352.8 584.2 348.8C583.5 344.8 582.1 331.4 581.5 327.5C580.8 323.7 580.8 326.2 580.2 325.8C579.6 325.4 581.8 325.1 577.9 325.1C573.9 325.1 561.7 325.3 556.4 325.7C551.1 326.2 548.0 327.4 546.1 328.1C544.1 328.7 545.1 329.0 544.8 329.7C544.6 330.5 543.9 329.8 544.5 332.6C545.2 335.5 548.3 344.2 548.8 347.1C549.2 350.0 547.9 349.6 547.5 350.1C547.1 350.6 546.9 350.3 546.5 350.1C546.1 349.9 546.1 351.7 545.4 348.6C544.7 345.6 542.8 335.4 542.4 331.8C541.9 328.2 541.7 329.1 542.6 327.0C543.4 324.9 545.7 322.5 547.3 319.3C548.8 316.0 550.4 310.5 551.7 307.7C553.1 304.9 554.6 303.6 555.3 302.3C556.0 301.0 555.8 304.4 555.9 299.9C556.0 295.4 556.2 281.3 555.8 275.2C555.5 269.0 554.4 265.6 553.8 263.2C553.2 260.8 553.2 261.3 552.3 260.7C551.4 260.1 553.6 260.0 548.6 259.7C543.5 259.5 529.6 258.8 522.0 259.0C514.4 259.2 506.2 259.9 502.7 260.7C499.2 261.6 501.3 261.1 501.1 264.1C500.9 267.0 500.6 274.0 501.5 278.4C502.3 282.8 505.0 286.9 506.3 290.7C507.5 294.5 508.0 297.2 508.8 301.2C509.5 305.3 510.4 311.2 510.8 315.2C511.3 319.1 511.4 323.1 511.3 324.9C511.2 326.7 510.5 326.1 510.2 326.0C509.8 326.0 509.6 327.3 509.2 324.7C508.8 322.1 508.2 313.8 507.7 310.3C507.2 306.8 506.7 305.2 506.1 303.9C505.6 302.6 505.8 302.8 504.5 302.5C503.2 302.1 499.7 301.9 498.4 301.6C497.2 301.4 497.2 301.2 497.2 300.8C497.2 300.4 497.4 299.9 498.4 299.4C499.5 298.8 502.4 298.1 503.5 297.5C504.5 296.9 504.8 297.8 504.6 295.9C504.4 293.9 503.2 288.4 502.3 285.7C501.4 283.0 499.6 284.3 499.1 279.9C498.6 275.5 499.1 263.2 499.4 259.4C499.7 255.6 497.7 260.0 501.0 257.0C504.4 254.1 516.1 244.4 519.6 241.6C523.1 238.9 521.3 240.6 522.2 240.5C523.1 240.4 519.5 238.3 525.0 241.0C530.4 243.8 549.5 254.0 554.8 257.2C560.0 260.5 555.7 257.6 556.4 260.6C557.1 263.6 558.4 268.9 558.8 275.2C559.3 281.4 558.8 294.9 559.3 298.2C559.7 301.4 560.8 295.5 561.6 294.6C562.5 293.7 563.7 293.0 564.4 292.8C565.1 292.5 565.3 292.6 566.1 293.1C566.9 293.6 568.8 299.1 569.2 295.8C569.7 292.4 568.8 278.2 569.0 273.0C569.3 267.9 569.4 266.7 570.7 264.7C572.0 262.6 571.9 265.1 576.7 260.7C581.5 256.4 594.6 243.6 599.5 238.5C604.3 233.3 601.6 234.3 605.8 229.8C609.9 225.3 620.2 215.3 624.4 211.4C628.5 207.4 629.4 206.9 630.9 206.0C632.4 205.0 632.5 205.3 633.6 205.6C634.6 205.9 635.5 206.1 637.2 207.8C638.9 209.5 642.2 214.6 644.0 215.9C645.8 217.3 644.5 217.9 648.0 216.0C651.5 214.0 657.9 209.5 665.2 204.2C672.4 198.8 686.4 187.0 691.2 184.0ZM507.0 186.8C506.4 186.7 506.0 187.2 505.6 187.6C505.2 188.1 504.7 188.5 504.9 189.5C505.0 190.5 505.8 192.8 506.3 193.6C506.8 194.4 507.7 194.7 507.8 194.3C507.9 193.9 506.8 191.8 506.9 191.2C507.1 190.6 507.9 190.3 508.8 190.5C509.6 190.6 511.0 191.3 511.9 192.1C512.7 192.9 514.1 193.8 513.9 195.1C513.7 196.4 511.4 199.0 510.6 199.9C509.7 200.8 509.5 200.5 508.9 200.5C508.3 200.5 507.8 200.5 507.1 199.8C506.4 199.1 505.1 196.2 504.7 196.3C504.3 196.3 503.9 198.8 504.7 200.3C505.5 201.8 507.8 204.4 509.8 205.1C511.8 205.8 515.0 205.2 516.7 204.6C518.3 204.0 519.1 202.9 519.4 201.5C519.8 200.1 520.3 198.7 518.6 196.4C516.9 194.1 511.2 189.4 509.2 187.8C507.3 186.2 507.6 186.8 507.0 186.8ZM691.1 190.8C690.5 191.2 689.3 191.9 688.7 193.7C688.1 195.6 687.6 200.0 687.5 201.9C687.4 203.8 687.7 204.5 688.1 205.2C688.5 205.9 689.3 206.3 690.1 206.3C690.8 206.4 691.8 206.0 692.6 205.5C693.3 205.1 694.0 204.8 694.7 203.7C695.4 202.6 696.7 200.5 696.7 198.9C696.8 197.3 695.7 195.3 695.0 194.0C694.3 192.8 693.3 191.9 692.7 191.4C692.0 190.9 691.8 190.5 691.1 190.8ZM430.8 201.8L430.2 202.3L430.8 201.8ZM448.1 203.0C447.9 202.9 448.1 204.2 448.4 204.6C448.7 205.0 449.8 205.5 449.8 205.3C449.7 205.0 448.3 203.1 448.1 203.0ZM442.8 203.6C442.4 203.7 441.9 203.8 442.1 204.2C442.3 204.7 443.7 205.3 444.0 206.4C444.4 207.5 443.5 210.1 444.2 210.9C444.9 211.7 447.8 210.6 448.2 211.3C448.5 211.9 446.0 214.4 446.2 215.0C446.4 215.5 448.4 215.2 449.3 214.5C450.2 213.7 452.2 212.0 451.8 210.7C451.3 209.4 447.7 207.7 446.6 206.6C445.5 205.4 445.7 204.4 445.1 203.9C444.5 203.4 443.3 203.6 442.8 203.6ZM427.2 204.8C426.7 204.9 425.5 205.7 425.2 206.0C424.9 206.4 425.0 206.7 425.4 206.8C425.8 207.0 427.2 207.0 427.6 206.8C428.1 206.6 428.0 206.0 427.9 205.6C427.9 205.3 427.7 204.8 427.2 204.8ZM456.7 204.7L456.2 205.2L456.7 204.7ZM420.5 210.1C420.1 209.8 419.7 209.9 418.4 210.5C417.1 211.1 414.6 212.6 412.9 213.9C411.1 215.1 408.8 216.8 407.8 217.8C406.9 218.7 406.8 219.0 407.3 219.5C407.7 219.9 409.4 220.6 410.6 220.3C411.9 220.1 414.0 219.0 415.0 218.1C416.1 217.2 416.1 215.7 417.1 214.7C418.0 213.8 420.4 213.0 420.9 212.3C421.5 211.5 420.9 210.4 420.5 210.1ZM632.9 209.7C631.9 209.7 631.8 209.3 629.3 211.3C626.8 213.3 620.9 218.8 617.8 221.8C614.6 224.8 611.7 227.8 610.5 229.3C609.3 230.7 606.8 229.9 610.4 230.4C613.9 230.8 625.9 231.7 632.0 232.0C638.1 232.3 644.0 232.1 647.0 232.0C649.9 231.8 649.4 231.6 649.9 231.1C650.4 230.6 651.0 230.6 650.0 228.9C649.1 227.2 646.5 223.8 644.1 220.9C641.8 217.9 637.6 213.1 635.7 211.3C633.9 209.4 634.0 209.7 632.9 209.7ZM357.3 212.6C352.7 215.5 338.0 227.4 333.3 231.3C328.6 235.2 330.6 234.9 329.1 236.1C327.7 237.4 325.7 237.9 324.8 238.8C323.8 239.6 322.3 240.9 323.3 241.4C324.4 241.9 329.2 241.5 330.8 241.9C332.4 242.3 330.5 243.4 333.1 243.5C335.7 243.6 343.1 243.2 346.6 242.6C350.0 241.9 350.9 239.6 353.8 239.7C356.7 239.7 360.8 242.4 364.1 242.9C367.3 243.3 371.3 242.5 373.3 242.2C375.2 241.9 375.4 241.6 375.9 241.2C376.3 240.8 376.5 240.9 376.1 239.6C375.7 238.3 374.9 236.1 373.5 233.5C372.1 230.9 369.9 227.4 367.8 224.2C365.7 221.0 362.4 216.2 360.7 214.3C358.9 212.4 361.8 209.8 357.3 212.6ZM706.2 215.6C704.9 216.1 704.0 216.5 700.5 219.5C697.0 222.4 688.6 230.3 685.3 233.3C682.0 236.3 681.6 236.7 680.8 237.7C680.0 238.8 677.7 239.0 680.4 239.4C683.0 239.8 690.2 240.2 697.0 240.0C703.7 239.8 716.9 238.8 720.8 238.2C724.8 237.6 722.5 239.6 720.7 236.2C718.9 232.8 712.1 221.4 709.9 218.1C707.8 214.7 708.7 216.4 708.1 216.0C707.4 215.6 707.4 215.0 706.2 215.6ZM243.6 227.8C244.7 226.9 244.7 227.8 245.1 228.1C245.5 228.3 245.4 227.3 245.7 229.3C246.1 231.3 245.7 237.2 247.1 239.9C248.6 242.6 253.1 244.3 254.4 245.5C255.8 246.7 255.2 246.5 255.2 247.0C255.2 247.5 255.7 247.8 254.3 248.3C252.9 248.8 248.8 249.3 246.9 249.9C245.0 250.5 243.8 251.3 243.1 252.1C242.3 252.8 242.4 252.4 242.2 254.2C242.0 256.0 242.0 260.9 241.6 262.6C241.2 264.3 240.5 264.1 240.0 264.2C239.5 264.3 239.3 264.5 238.6 263.3C237.9 262.1 236.7 258.6 235.8 257.2C234.9 255.8 234.5 255.3 233.2 254.8C231.9 254.3 230.1 254.0 228.1 254.1C226.0 254.2 222.5 255.5 220.9 255.5C219.4 255.5 218.2 255.5 218.8 254.0C219.4 252.5 223.4 248.5 224.7 246.7C225.9 244.9 226.0 244.4 226.3 243.4C226.6 242.3 226.9 242.0 226.5 240.4C226.0 238.7 224.2 235.0 223.8 233.6C223.4 232.2 223.7 232.4 224.1 232.1C224.5 231.9 224.8 231.6 226.2 232.0C227.6 232.4 230.7 234.2 232.3 234.7C233.9 235.1 234.7 234.9 235.6 234.6C236.6 234.4 236.9 234.4 238.2 233.2C239.5 232.1 242.4 228.6 243.6 227.8ZM796.1 229.6C795.4 229.6 795.0 229.6 793.9 230.9C792.8 232.2 790.9 235.3 789.7 237.7C788.5 240.1 787.2 243.2 786.5 245.5C785.7 247.7 785.1 248.6 785.2 251.1C785.3 253.7 786.4 258.5 787.2 260.8C788.1 263.0 789.4 263.8 790.3 264.7C791.3 265.5 792.0 265.7 793.2 265.8C794.3 265.9 795.7 265.8 797.3 265.3C798.8 264.7 801.1 263.3 802.4 262.4C803.7 261.5 804.3 260.8 804.9 259.9C805.5 259.0 805.9 259.0 805.8 256.9C805.7 254.7 805.4 251.2 804.1 246.9C802.8 242.6 799.3 233.9 798.0 231.0C796.7 228.1 796.8 229.7 796.1 229.6ZM242.1 233.7C240.9 234.1 238.9 237.0 236.7 237.6C234.5 238.2 230.1 236.1 228.9 237.1C227.7 238.0 230.0 241.4 229.3 243.5C228.7 245.6 225.8 248.5 225.1 249.8C224.4 251.1 223.8 250.8 225.2 251.2C226.6 251.7 231.2 251.8 233.5 252.5C235.7 253.2 237.3 255.7 238.7 255.2C240.0 254.7 239.8 251.0 241.5 249.5C243.2 248.1 247.7 247.1 248.9 246.3C250.0 245.5 249.2 245.4 248.4 244.5C247.7 243.6 245.1 242.4 244.3 240.9C243.5 239.4 244.1 236.5 243.7 235.3C243.3 234.1 243.3 233.3 242.1 233.7ZM311.8 235.0C311.0 234.7 313.4 232.4 309.9 235.9C306.3 239.5 294.8 251.5 290.3 256.3C285.8 261.1 284.1 263.1 282.8 264.7C281.5 266.4 280.0 266.2 282.3 266.4C284.7 266.5 291.8 266.5 296.8 265.8C301.9 265.2 309.8 265.6 312.6 262.5C315.4 259.4 312.9 250.7 313.5 247.1C314.0 243.6 315.9 242.8 316.1 241.1C316.3 239.5 315.3 238.5 314.6 237.4C313.8 236.4 312.5 235.2 311.8 235.0ZM608.8 235.4C602.3 235.6 608.1 235.9 608.2 236.3C608.4 236.8 604.6 234.0 609.8 238.2C614.9 242.5 633.9 257.4 639.1 261.9C644.3 266.4 639.9 260.5 641.0 265.0C642.1 269.6 644.7 283.0 645.7 289.3C646.7 295.6 646.8 299.9 646.9 302.8C646.9 305.7 647.1 305.5 646.1 306.7C645.1 307.9 642.7 308.0 641.0 310.0C639.3 312.1 636.5 317.2 635.9 318.8C635.3 320.4 636.3 319.6 637.3 319.8C638.3 319.9 639.3 320.3 641.9 319.9C644.6 319.5 651.1 318.0 653.1 317.2C655.2 316.4 654.1 318.3 654.1 315.3C654.1 312.3 652.9 303.9 653.2 299.2C653.5 294.5 655.8 293.3 655.9 287.1C656.1 280.9 654.4 268.6 654.0 262.0C653.7 255.3 654.3 251.2 653.9 247.1C653.5 243.0 652.3 239.2 651.7 237.3C651.1 235.4 651.1 236.1 650.3 235.7C649.5 235.3 653.9 235.1 647.0 235.0C640.0 235.0 615.2 235.2 608.8 235.4ZM601.4 241.3C600.9 241.2 599.9 241.2 599.4 242.3C598.9 243.4 598.9 246.7 598.3 247.9C597.8 249.0 596.0 248.7 596.0 249.3C596.0 249.9 598.0 250.6 598.3 251.4C598.6 252.2 597.8 253.2 597.8 254.0C597.9 254.9 599.4 256.0 598.7 256.3C598.1 256.7 595.4 255.5 594.0 256.1C592.6 256.8 590.8 259.4 590.2 260.3C589.6 261.1 588.3 261.1 590.3 261.3C592.2 261.6 598.7 262.0 602.0 262.0C605.3 261.9 606.0 261.2 610.0 261.0C614.0 260.9 622.8 261.1 626.0 261.0C629.1 260.8 628.3 260.5 628.8 260.2C629.3 260.0 629.2 259.7 629.0 259.5C628.9 259.2 629.1 258.9 627.9 258.6C626.7 258.4 622.5 258.6 622.1 258.1C621.7 257.7 625.6 257.0 625.7 256.2C625.8 255.4 624.0 253.9 622.9 253.4C621.8 252.8 620.5 253.5 619.1 253.0C617.7 252.6 615.6 251.0 614.3 250.7C613.0 250.4 611.4 251.8 611.1 251.3C610.9 250.9 612.7 248.9 613.0 248.0C613.3 247.2 613.5 246.6 613.0 246.2C612.4 245.9 610.9 246.3 609.9 245.9C608.8 245.6 607.7 243.9 606.9 244.2C606.0 244.4 604.7 246.1 604.6 247.3C604.4 248.6 606.3 250.5 605.9 251.7C605.6 252.9 603.3 255.0 602.5 254.5C601.6 254.0 600.3 250.4 600.7 248.4C601.0 246.5 604.2 243.6 604.5 242.7C604.9 241.7 603.2 243.0 602.7 242.8C602.2 242.6 602.0 241.4 601.4 241.3ZM383.0 245.7C381.2 245.6 381.6 245.7 380.4 246.5C379.3 247.2 377.0 249.2 376.1 250.1C375.2 251.0 375.0 251.5 375.1 252.1C375.1 252.7 375.6 253.4 376.3 253.7C376.9 254.1 376.5 254.5 378.8 254.4C381.0 254.2 387.4 253.4 389.8 252.8C392.2 252.3 392.4 251.8 392.9 251.1C393.5 250.5 393.3 249.5 393.0 248.9C392.7 248.2 392.8 247.5 391.1 247.0C389.4 246.4 384.7 245.8 383.0 245.7ZM518.1 247.6C515.6 247.9 516.2 248.3 515.3 249.3C514.3 250.2 513.2 252.2 512.2 253.2C511.1 254.1 509.6 254.4 508.9 254.9C508.3 255.3 508.2 255.8 508.2 256.1C508.1 256.3 504.6 256.6 508.7 256.6C512.8 256.5 528.5 256.2 532.8 255.9C537.2 255.6 534.9 255.8 535.0 254.9C535.1 254.0 534.3 251.6 533.5 250.5C532.8 249.3 532.9 248.3 530.3 247.8C527.7 247.4 520.6 247.4 518.1 247.6ZM593.4 249.2L593.2 249.9L593.4 249.2ZM608.2 248.7L609.0 249.1L608.2 248.7ZM387.4 249.6C387.5 249.4 388.8 249.4 389.4 249.6C390.0 249.9 391.1 250.9 390.9 251.1C390.8 251.3 388.9 251.0 388.4 250.7C387.8 250.5 387.2 249.8 387.4 249.6ZM310.1 256.1L309.8 256.8L310.1 256.1ZM277.2 270.4C276.4 270.5 276.3 270.2 274.5 271.5C272.6 272.7 268.4 275.7 265.9 277.9C263.3 280.0 256.9 283.5 259.4 284.4C261.8 285.3 275.3 283.7 280.6 283.2C285.8 282.7 289.1 281.9 290.6 281.4C292.2 280.8 291.5 281.0 290.1 279.8C288.7 278.7 284.1 276.2 282.3 274.7C280.5 273.2 280.0 271.6 279.1 270.9C278.3 270.2 278.0 270.3 277.2 270.4ZM448.6 272.8C449.2 272.4 449.9 272.5 450.4 272.8C450.9 273.0 451.3 273.1 451.4 274.2C451.6 275.4 450.9 277.3 451.3 279.7C451.7 282.2 453.6 286.8 453.8 289.0C454.1 291.1 453.5 291.7 452.7 292.7C451.8 293.6 450.0 294.4 449.0 294.6C448.0 294.9 447.5 294.6 446.8 294.2C446.0 293.9 445.1 293.7 444.5 292.5C443.9 291.3 443.1 289.2 443.0 287.0C443.0 284.8 443.8 281.5 444.4 279.4C445.0 277.4 446.0 275.8 446.7 274.7C447.4 273.6 448.0 273.1 448.6 272.8ZM673.2 276.7C672.6 277.0 671.0 278.5 670.5 279.0C670.1 279.6 670.1 279.8 670.5 280.0C671.0 280.1 672.6 280.4 673.1 279.9C673.7 279.5 673.9 277.9 673.9 277.4C673.9 276.9 673.7 276.4 673.2 276.7ZM447.8 280.0C447.1 279.0 446.5 280.9 446.0 282.0C445.6 283.2 445.2 285.6 445.2 287.0C445.1 288.4 445.3 289.3 445.8 290.2C446.3 291.0 447.5 292.0 448.2 292.1C448.9 292.2 449.6 291.7 450.1 291.0C450.5 290.3 451.1 289.9 450.7 288.1C450.4 286.2 448.6 281.0 447.8 280.0ZM750.6 288.2C748.3 285.9 749.8 287.6 748.4 289.5C747.1 291.3 743.8 296.6 742.5 299.4C741.1 302.2 739.8 304.9 740.2 306.2C740.6 307.5 741.2 307.0 745.0 307.0C748.8 307.0 759.7 306.6 762.7 306.3C765.7 306.0 763.3 305.8 763.2 305.3C763.0 304.7 764.1 305.9 762.0 303.0C759.9 300.2 752.8 290.4 750.6 288.2ZM256.0 306.7C255.2 306.6 255.1 306.7 253.9 307.9C252.7 309.1 251.4 310.7 248.9 313.9C246.4 317.0 240.6 324.3 238.9 326.9C237.1 329.4 238.0 328.8 238.3 329.3C238.6 329.8 236.0 330.3 240.8 329.7C245.5 329.1 262.6 326.8 267.0 325.8C271.4 324.8 267.5 324.8 267.2 323.7C266.8 322.5 266.4 321.6 265.0 319.0C263.5 316.5 260.0 310.5 258.5 308.5C257.1 306.4 256.8 306.8 256.0 306.7ZM556.6 307.2C555.8 307.2 556.0 306.3 554.7 308.8C553.5 311.2 550.1 319.5 549.2 321.9C548.2 324.3 547.8 323.2 549.3 323.3C550.8 323.4 555.7 322.4 558.1 322.4C560.5 322.5 561.8 323.7 563.9 323.5C565.9 323.4 569.7 322.5 570.6 321.5C571.5 320.4 570.2 317.8 569.4 317.4C568.6 317.0 567.3 319.7 565.6 319.1C564.0 318.5 560.5 315.2 559.3 314.0C558.1 312.8 558.5 312.5 558.6 311.6C558.6 310.7 560.1 309.5 559.8 308.7C559.5 308.0 557.4 307.2 556.6 307.2ZM656.1 311.0L657.0 312.0L656.1 311.0ZM577.2 319.8L577.8 320.3L577.2 319.8ZM302.4 335.4C309.6 334.7 323.8 334.2 334.9 335.1C346.0 336.0 361.0 339.9 369.2 340.8C377.3 341.8 379.8 341.1 383.9 340.9C388.1 340.7 392.0 339.7 394.0 339.6C396.0 339.4 395.5 339.7 396.0 340.0C396.6 340.4 396.8 335.4 397.5 341.5C398.2 347.7 399.1 365.8 400.2 376.8C401.2 387.9 403.4 401.2 404.0 408.0C404.6 414.9 404.3 414.3 403.8 417.8C403.4 421.4 402.3 426.3 401.3 429.3C400.4 432.4 400.1 433.1 398.2 436.2C396.3 439.3 393.7 443.2 389.7 447.7C385.8 452.3 378.3 460.2 374.7 463.7C371.1 467.2 370.2 467.5 367.9 468.9C365.7 470.4 363.6 471.5 361.3 472.3C359.0 473.1 356.8 473.9 354.0 474.0C351.1 474.0 347.2 473.6 344.2 472.8C341.2 471.9 339.3 470.8 336.0 469.0C332.8 467.1 327.8 463.7 324.6 461.4C321.4 459.1 321.1 459.1 316.8 455.2C312.5 451.4 303.1 443.3 298.8 438.2C294.5 433.2 292.6 428.2 291.0 425.0C289.4 421.7 289.9 423.4 289.3 418.7C288.6 414.0 287.7 409.2 287.1 396.9C286.5 384.7 284.9 354.7 285.7 345.1C286.4 335.6 288.9 341.3 291.7 339.7C294.5 338.1 295.2 336.2 302.4 335.4ZM318.1 337.4C312.3 337.4 306.4 337.8 303.2 338.2C299.9 338.5 300.2 338.7 298.4 339.4C296.6 340.1 294.1 341.1 292.5 342.5C290.8 343.8 289.1 343.6 288.4 347.4C287.6 351.1 287.9 357.7 288.0 365.0C288.1 372.2 288.6 382.8 289.1 390.9C289.6 399.1 290.5 408.6 291.2 413.8C291.8 419.0 292.1 419.6 292.9 422.1C293.7 424.6 294.7 426.5 296.0 429.0C297.4 431.4 297.4 432.6 301.3 436.7C305.1 440.9 314.8 449.7 319.3 453.7C323.8 457.7 324.0 457.8 328.4 460.6C332.8 463.3 341.6 468.6 345.7 470.3C349.8 472.1 350.8 471.0 353.0 471.0C355.2 471.0 357.0 470.8 359.1 470.1C361.2 469.4 363.3 468.4 365.8 466.8C368.3 465.2 369.6 465.1 374.2 460.2C378.9 455.4 389.6 443.3 393.7 437.7C397.8 432.2 397.7 431.5 399.0 427.0C400.3 422.5 401.9 418.9 401.6 410.6C401.3 402.2 398.2 385.9 397.2 376.8C396.1 367.7 395.5 361.3 395.1 355.9C394.7 350.5 395.1 346.5 394.8 344.4C394.5 342.2 394.9 342.9 393.3 342.9C391.7 342.8 389.0 343.8 385.0 344.0C380.9 344.1 377.0 344.8 369.2 343.8C361.3 342.9 346.3 339.2 337.8 338.2C329.3 337.1 323.9 337.4 318.1 337.4ZM446.5 348.4C446.6 344.5 447.3 349.2 447.7 351.3C448.1 353.4 448.6 356.7 448.8 361.2C449.1 365.6 448.6 370.8 449.1 377.9C449.6 385.1 451.5 397.5 452.0 404.0C452.5 410.5 452.4 411.8 451.8 416.8C451.2 421.9 449.3 430.5 448.4 434.4C447.4 438.2 447.0 438.6 446.1 440.1C445.3 441.6 446.1 441.0 443.4 443.4C440.6 445.8 434.9 450.6 429.6 454.6C424.2 458.5 414.2 465.2 411.1 467.0C408.1 468.8 410.8 466.1 411.4 465.3C411.9 464.5 409.3 466.2 414.3 462.3C419.3 458.4 436.6 445.8 441.6 441.6C446.7 437.5 443.7 439.0 444.5 437.5C445.3 435.9 445.6 434.8 446.4 432.4C447.1 429.9 448.1 426.3 448.7 422.7C449.3 419.2 449.8 414.4 450.0 411.0C450.2 407.6 450.4 408.1 449.9 402.1C449.4 396.1 447.6 383.9 447.1 374.9C446.5 366.0 446.4 352.4 446.5 348.4ZM684.7 349.9C686.0 348.2 686.0 349.3 686.3 350.4C686.6 351.5 685.7 353.0 686.4 356.6C687.1 360.1 690.3 368.4 690.6 371.9C690.8 375.3 689.3 376.0 688.2 377.2C687.1 378.3 685.1 378.6 684.1 378.7C683.0 378.9 682.5 378.6 681.8 378.2C681.0 377.8 680.3 378.0 679.5 376.5C678.7 375.0 677.3 371.6 677.2 369.0C677.0 366.4 677.5 363.9 678.7 360.7C680.0 357.6 683.4 351.7 684.7 349.9ZM682.9 358.9C682.2 359.1 681.1 359.8 680.5 361.5C679.9 363.1 679.1 366.8 679.2 368.9C679.3 371.0 680.1 372.9 680.9 374.1C681.7 375.3 683.0 376.3 684.0 376.3C685.0 376.3 686.4 375.1 687.1 374.1C687.7 373.0 688.3 372.4 687.8 370.1C687.3 367.9 685.2 362.5 684.3 360.7C683.5 358.8 683.5 358.8 682.9 358.9ZM792.5 360.1C793.5 358.8 793.5 359.7 793.6 361.2C793.7 362.6 793.0 365.2 793.0 369.0C793.0 372.8 793.9 380.9 793.8 383.8C793.7 386.7 793.4 385.9 792.6 386.6C791.8 387.2 790.2 387.8 789.1 387.7C788.1 387.6 786.9 387.0 786.2 385.8C785.6 384.5 785.0 383.1 785.3 380.2C785.6 377.4 786.7 372.2 787.9 368.9C789.1 365.5 791.6 361.4 792.5 360.1ZM517.1 364.2C517.7 364.0 517.9 363.3 517.8 366.0C517.6 368.6 516.4 376.6 516.2 380.1C516.1 383.6 516.9 384.1 517.0 387.0C517.0 390.0 517.2 395.1 516.7 397.7C516.2 400.3 514.7 401.8 513.8 402.8C512.9 403.9 512.2 403.9 511.3 404.2C510.5 404.4 509.5 404.5 508.6 404.3C507.7 404.1 506.7 403.6 506.0 403.0C505.3 402.3 504.8 402.9 504.5 400.5C504.2 398.0 503.4 392.8 504.3 388.3C505.2 383.8 508.1 377.3 509.7 373.7C511.3 370.1 512.6 368.4 513.9 366.9C515.1 365.3 516.4 364.3 517.1 364.2ZM789.8 372.0C789.4 372.0 788.8 372.0 788.4 373.4C788.0 374.8 787.3 378.3 787.2 380.1C787.2 381.8 787.7 383.0 788.1 383.8C788.5 384.7 789.3 385.1 789.8 385.1C790.4 385.0 791.2 384.2 791.5 383.5C791.9 382.8 792.0 382.7 791.9 381.0C791.8 379.3 791.1 374.8 790.8 373.3C790.4 371.8 790.2 371.9 789.8 372.0ZM512.9 374.0C512.3 374.6 510.9 375.9 509.7 378.7C508.6 381.6 506.7 387.9 506.2 391.2C505.6 394.5 506.3 396.9 506.5 398.5C506.7 400.0 507.1 400.0 507.5 400.4C508.0 400.9 508.3 401.5 509.2 401.4C510.1 401.3 511.7 400.9 512.7 399.7C513.6 398.4 514.7 397.9 514.8 393.8C515.0 389.8 514.0 378.5 513.7 375.2C513.4 371.9 513.6 373.5 512.9 374.0ZM558.5 373.4C559.0 363.7 559.3 373.7 559.5 374.6C559.7 375.5 559.9 367.4 560.0 379.0C560.1 390.6 560.1 432.6 560.0 444.0C559.9 455.4 559.6 447.4 559.3 447.5C559.1 447.7 558.7 447.1 558.3 444.7C557.9 442.3 557.0 444.9 557.0 433.0C557.0 421.1 558.1 383.2 558.5 373.4ZM619.7 372.9C620.3 372.4 620.9 372.6 621.4 372.8C621.9 373.1 622.2 372.7 622.6 374.4C623.0 376.1 623.9 380.8 624.0 383.0C624.0 385.3 623.7 386.9 623.0 388.0C622.4 389.1 621.0 389.6 619.9 389.7C618.9 389.7 617.5 389.3 616.7 388.3C615.9 387.4 615.0 386.1 615.2 384.0C615.3 381.9 617.0 377.6 617.7 375.7C618.5 373.9 619.1 373.4 619.7 372.9ZM358.6 377.4C358.9 377.4 359.5 377.2 360.2 379.8C360.9 382.5 362.3 389.3 362.7 393.3C363.2 397.3 363.3 400.9 362.8 403.8C362.3 406.7 361.0 409.1 359.7 410.7C358.4 412.3 355.9 413.0 355.0 413.4C354.1 413.8 354.2 413.4 354.1 413.1C353.9 412.9 353.5 412.7 354.1 411.8C354.7 411.0 357.0 409.4 357.9 407.9C358.9 406.4 359.5 405.0 359.8 402.8C360.2 400.7 360.2 398.9 359.9 395.1C359.6 391.3 358.3 382.9 358.1 380.0C357.9 377.0 358.2 377.4 358.6 377.4ZM619.8 377.9C619.4 377.9 618.6 378.3 618.1 379.1C617.7 380.0 617.2 381.8 617.2 383.0C617.1 384.1 617.5 385.3 618.0 386.0C618.4 386.7 619.4 387.1 619.9 387.2C620.4 387.2 620.9 386.8 621.2 386.1C621.5 385.4 621.8 384.2 621.8 383.1C621.7 381.9 621.2 380.0 620.9 379.2C620.6 378.3 620.3 377.9 619.8 377.9ZM234.0 386.2C233.4 388.6 229.6 397.5 228.0 404.0C226.4 410.5 225.0 419.2 224.2 425.2C223.3 431.2 223.2 431.9 223.0 440.0C222.8 448.1 222.7 465.3 223.1 473.9C223.5 482.5 224.0 485.0 225.4 491.6C226.8 498.2 229.6 507.9 231.5 513.5C233.3 519.2 234.1 520.2 236.7 525.3C239.3 530.4 243.7 538.5 247.0 544.0C250.4 549.4 254.3 554.7 256.9 558.1C259.4 561.6 259.9 561.9 262.6 564.4C265.3 566.9 269.8 570.9 272.9 573.1C276.0 575.4 276.6 575.6 281.2 577.8C285.8 580.0 294.9 584.5 300.4 586.6C306.0 588.7 309.5 589.3 314.6 590.4C319.7 591.4 324.2 592.5 331.1 592.9C337.9 593.4 351.4 593.0 355.6 593.2C359.9 593.4 356.7 593.6 356.8 593.9C356.8 594.2 356.6 594.6 355.8 594.9C355.0 595.3 354.9 595.8 351.9 595.9C349.0 596.1 344.4 596.4 338.1 595.9C331.8 595.4 320.1 593.9 314.1 592.9C308.1 591.9 307.9 592.2 302.0 590.0C296.1 587.8 284.5 582.6 278.5 579.5C272.5 576.3 269.5 574.0 265.9 571.1C262.2 568.3 259.8 565.8 256.8 562.2C253.7 558.6 250.6 554.2 247.4 549.6C244.3 544.9 240.8 540.0 237.8 534.2C234.7 528.4 231.5 521.3 229.2 514.8C226.8 508.4 225.2 503.2 223.7 495.3C222.1 487.5 220.6 476.2 220.0 468.0C219.4 459.8 219.5 454.5 220.1 446.1C220.6 437.6 221.8 425.5 223.3 417.3C224.7 409.1 227.4 401.6 228.9 396.9C230.3 392.2 231.2 390.8 232.0 389.0C232.9 387.2 234.7 383.7 234.0 386.2ZM307.3 392.6C308.8 392.5 315.4 392.9 317.7 393.3C320.0 393.7 320.7 394.5 320.9 395.0C321.1 395.4 320.1 395.8 318.9 395.9C317.6 396.0 315.1 395.8 313.4 395.6C311.7 395.3 309.6 394.9 308.6 394.4C307.6 393.9 305.8 392.8 307.3 392.6ZM379.9 400.1C381.5 400.0 389.4 400.8 390.8 401.2C392.2 401.6 389.6 402.3 388.5 402.5C387.4 402.8 385.3 403.0 384.1 402.9C382.8 402.8 381.7 402.5 381.0 402.0C380.3 401.6 378.2 400.2 379.9 400.1ZM691.2 400.6C693.9 400.6 698.4 400.9 700.4 401.6C702.3 402.4 702.1 402.3 703.0 405.0C703.9 407.8 705.3 414.5 705.8 418.2C706.4 421.8 705.5 420.4 706.2 426.8C706.8 433.3 709.3 450.4 709.9 457.1C710.5 463.8 710.3 462.5 709.9 466.9C709.6 471.4 708.8 478.6 707.7 483.7C706.7 488.9 705.0 494.0 703.6 497.6C702.1 501.1 701.2 502.9 699.1 505.1C697.0 507.4 695.0 508.5 691.0 511.0C686.9 513.4 679.1 517.6 674.6 519.6C670.0 521.5 667.5 522.2 663.7 522.7C660.0 523.3 655.4 523.2 652.0 523.0C648.6 522.8 646.8 522.7 643.3 521.7C639.7 520.8 636.6 520.2 630.7 517.3C624.8 514.4 612.3 507.0 607.9 504.1C603.4 501.3 605.0 501.6 603.9 500.1C602.7 498.7 601.9 498.6 600.7 495.3C599.6 491.9 597.9 485.1 597.2 479.8C596.4 474.6 596.2 469.8 596.0 464.0C595.8 458.2 595.9 449.7 596.0 445.0C596.2 440.3 596.8 442.1 597.0 436.0C597.1 429.8 596.9 413.2 597.0 408.0C597.2 402.9 597.2 405.7 598.0 405.0C598.7 404.2 599.1 403.9 601.4 403.4C603.8 403.0 606.3 401.7 611.9 402.1C617.5 402.5 628.0 405.0 635.2 405.8C642.3 406.7 648.7 407.0 655.0 407.0C661.2 406.9 667.8 406.6 672.7 405.7C677.6 404.8 681.4 402.4 684.5 401.5C687.6 400.6 688.6 400.5 691.2 400.6ZM271.2 403.0C271.8 402.9 272.2 402.5 272.6 404.4C273.1 406.4 273.3 411.3 274.1 414.9C274.9 418.5 277.1 422.6 277.3 425.9C277.5 429.1 275.9 432.5 275.3 434.3C274.7 436.1 274.2 435.9 273.4 436.4C272.7 436.9 272.1 437.5 270.9 437.2C269.6 437.0 267.1 435.9 266.0 435.0C264.8 434.1 264.5 433.0 264.0 432.0C263.6 431.0 263.0 431.8 263.3 429.0C263.6 426.1 264.9 418.8 265.9 414.9C266.9 410.9 268.3 407.2 269.2 405.2C270.1 403.2 270.7 403.2 271.2 403.0ZM689.3 403.3C685.9 404.0 680.0 406.6 676.6 407.6C673.2 408.5 675.6 408.7 669.0 409.0C662.4 409.2 646.2 409.6 637.1 408.9C627.9 408.3 619.5 405.6 614.0 405.0C608.5 404.4 606.7 404.9 604.3 405.3C601.9 405.7 600.4 406.6 599.5 407.3C598.6 408.1 598.9 404.3 598.8 409.6C598.7 414.9 599.1 432.3 599.0 439.0C598.9 445.7 598.0 444.4 598.0 450.0C598.0 455.6 598.5 466.1 599.2 472.8C599.8 479.5 600.7 486.1 601.7 490.3C602.8 494.4 604.0 495.5 605.4 497.6C606.9 499.6 606.1 499.9 610.3 502.7C614.5 505.5 625.0 511.5 630.7 514.3C636.4 517.1 640.8 518.3 644.7 519.3C648.6 520.4 650.4 520.7 654.1 520.8C657.7 520.8 663.1 520.2 666.5 519.5C670.0 518.8 670.5 518.5 674.6 516.6C678.6 514.6 687.2 510.2 691.0 508.0C694.7 505.7 695.4 505.2 697.1 503.1C698.9 501.1 700.1 499.3 701.5 495.5C702.9 491.8 704.7 484.7 705.6 480.6C706.5 476.5 706.7 475.3 706.9 470.9C707.1 466.5 707.6 462.5 706.9 454.1C706.2 445.6 703.9 428.2 702.7 420.3C701.5 412.3 700.4 408.9 699.7 406.3C699.0 403.6 699.1 404.9 698.6 404.4C698.1 403.9 698.2 403.6 696.6 403.4C695.1 403.2 692.6 402.6 689.3 403.3ZM471.5 406.5C472.0 404.1 472.7 407.4 472.8 410.1C472.8 412.8 472.9 417.6 471.7 422.7C470.6 427.9 468.2 435.6 466.0 441.0C463.7 446.4 460.5 451.5 458.1 455.1C455.7 458.7 454.5 459.6 451.6 462.6C448.7 465.5 443.9 470.0 440.7 472.7C437.5 475.4 435.5 476.8 432.6 478.6C429.7 480.3 429.9 480.6 423.3 483.3C416.8 486.1 406.1 491.1 393.3 495.3C380.4 499.5 353.7 506.6 346.4 508.4C339.0 510.2 347.7 506.9 349.1 506.1C350.5 505.3 347.8 505.8 354.7 503.7C361.6 501.6 380.6 496.8 390.5 493.5C400.5 490.3 407.8 487.0 414.3 484.3C420.7 481.6 425.4 479.4 429.3 477.3C433.2 475.2 433.5 475.3 437.7 471.7C441.9 468.1 450.6 460.3 454.7 455.7C458.7 451.1 460.0 447.8 462.0 444.0C464.0 440.2 465.6 436.1 466.8 432.8C468.1 429.6 468.6 428.7 469.3 424.3C470.1 420.0 470.9 408.9 471.5 406.5ZM732.3 411.5C732.7 410.4 733.0 413.1 733.0 415.0C732.9 416.9 732.2 418.4 732.1 423.1C731.9 427.7 731.4 432.8 732.0 443.0C732.7 453.1 735.3 473.1 735.9 484.1C736.6 495.1 736.1 503.5 735.8 508.8C735.5 514.2 735.2 513.0 734.1 516.1C733.0 519.2 730.7 524.5 729.3 527.3C727.9 530.1 727.4 530.7 725.7 532.7C724.0 534.7 726.2 534.6 719.2 539.2C712.2 543.9 691.0 556.5 683.6 560.6C676.1 564.6 680.4 562.4 674.6 563.6C668.8 564.8 654.6 567.1 648.8 567.8C643.1 568.6 643.3 568.2 640.1 567.9C636.9 567.7 637.0 568.3 629.6 566.4C622.2 564.5 604.9 558.1 595.7 556.3C586.5 554.4 577.7 555.6 574.2 555.3C570.8 554.9 574.3 554.4 575.2 554.1C576.0 553.7 576.0 553.3 579.2 553.2C582.3 553.0 585.2 551.4 593.8 553.2C602.5 555.0 623.7 562.0 631.1 563.9C638.4 565.9 634.7 564.8 638.0 565.0C641.3 565.1 646.3 565.2 650.8 564.8C655.4 564.4 660.8 563.5 665.6 562.6C670.3 561.6 675.6 560.6 679.3 559.3C683.0 558.0 681.6 558.6 688.0 555.0C694.3 551.3 710.9 541.9 717.2 537.2C723.6 532.6 723.8 530.7 726.1 527.1C728.5 523.6 729.9 519.6 731.1 516.1C732.4 512.6 733.2 510.2 733.6 506.1C734.1 501.9 734.5 501.1 733.9 491.1C733.3 481.1 730.6 457.6 730.0 446.0C729.5 434.4 730.2 427.0 730.6 421.3C731.0 415.5 731.9 412.5 732.3 411.5ZM269.8 413.2C268.8 411.2 269.1 413.2 268.8 413.9C268.4 414.7 268.0 415.1 267.6 417.6C267.2 420.1 266.2 426.3 266.2 428.9C266.2 431.4 267.1 432.2 267.9 433.1C268.7 434.0 269.8 434.7 270.8 434.4C271.8 434.2 273.0 433.0 273.6 431.6C274.3 430.3 275.4 429.2 274.8 426.1C274.2 423.1 270.8 415.2 269.8 413.2ZM576.5 420.5C577.0 415.9 577.2 421.3 577.4 422.7C577.7 424.1 577.9 426.6 577.8 429.2C577.8 431.7 577.1 430.7 577.0 438.0C576.9 445.3 576.6 464.5 577.2 472.8C577.7 481.1 579.1 483.6 580.2 487.8C581.3 492.0 581.8 493.7 583.9 498.1C585.9 502.6 589.8 510.2 592.6 514.4C595.4 518.6 598.2 521.0 600.8 523.2C603.3 525.5 604.0 526.0 608.0 528.0C612.1 529.9 621.8 533.6 625.0 535.0C628.2 536.4 626.7 536.1 627.0 536.5C627.3 536.8 630.1 538.2 626.8 537.1C623.4 536.0 611.6 532.2 606.9 530.1C602.1 528.1 601.2 527.3 598.3 524.7C595.4 522.1 592.3 518.5 589.6 514.4C586.9 510.3 584.0 505.2 581.9 500.1C579.8 495.1 578.1 488.5 577.0 484.0C575.9 479.5 575.6 478.6 575.1 472.9C574.6 467.3 573.9 458.8 574.1 450.1C574.3 441.3 575.9 425.1 576.5 420.5ZM237.5 425.5C238.0 426.6 240.9 439.6 242.9 446.1C244.9 452.6 247.6 459.9 249.4 464.6C251.2 469.3 251.5 470.5 253.7 474.3C255.8 478.2 259.6 484.1 262.3 487.7C265.0 491.3 265.7 492.4 269.9 496.1C274.0 499.9 281.3 506.2 287.0 510.0C292.8 513.7 298.9 516.5 304.4 518.6C310.0 520.7 316.0 521.7 320.4 522.6C324.9 523.5 324.9 523.7 331.0 524.0C337.1 524.2 349.4 524.6 357.0 524.0C364.5 523.4 368.1 522.8 376.4 520.4C384.6 517.9 398.1 512.9 406.3 509.3C414.6 505.8 418.2 503.4 426.0 499.0C433.7 494.5 445.7 486.6 452.7 482.7C459.6 478.8 462.4 477.8 467.7 475.7C473.0 473.6 480.1 471.4 484.3 470.3C488.5 469.2 491.1 469.2 493.0 469.2C494.9 469.1 495.6 469.8 495.8 470.2C496.0 470.5 496.6 470.8 494.3 471.3C491.9 471.9 485.7 472.6 481.7 473.7C477.6 474.7 473.6 476.1 469.7 477.7C465.8 479.3 467.6 477.8 458.1 483.1C448.5 488.4 423.2 503.7 412.5 509.5C401.7 515.2 399.6 515.3 393.6 517.6C387.5 519.9 382.7 521.7 376.3 523.3C369.8 524.8 362.2 526.4 355.0 527.0C347.8 527.6 339.4 527.3 333.1 526.9C326.8 526.5 322.3 525.7 317.3 524.7C312.3 523.7 307.7 522.5 303.2 520.8C298.6 519.2 294.7 517.6 290.0 515.0C285.4 512.3 279.8 508.5 275.3 504.7C270.8 500.9 266.1 495.9 262.9 492.1C259.6 488.4 258.3 486.9 255.7 482.3C253.1 477.7 250.1 471.7 247.4 464.6C244.7 457.4 241.1 446.1 239.4 439.6C237.8 433.0 236.9 424.4 237.5 425.5ZM660.2 449.2C660.6 449.4 661.1 448.2 661.7 452.3C662.3 456.4 663.8 469.7 663.8 473.8C663.8 477.9 663.2 476.0 661.9 476.9C660.7 477.8 657.3 479.1 656.3 479.2C655.4 479.4 655.5 478.7 656.1 477.8C656.7 476.9 659.2 474.9 660.0 474.0C660.7 473.0 660.9 474.5 660.8 471.8C660.6 469.2 659.3 461.4 659.0 458.0C658.8 454.5 659.0 452.7 659.2 451.2C659.4 449.8 659.8 449.1 660.2 449.2ZM391.5 459.7C392.4 459.1 392.7 458.0 393.2 460.3C393.7 462.6 394.5 470.7 394.4 473.7C394.2 476.7 393.4 477.4 392.3 478.3C391.3 479.3 389.5 479.8 388.3 479.6C387.1 479.3 385.7 478.1 385.1 476.9C384.5 475.8 384.3 474.9 384.8 472.7C385.3 470.6 386.9 466.2 388.0 464.0C389.1 461.8 390.6 460.4 391.5 459.7ZM624.4 460.6C624.6 460.3 624.8 460.0 626.9 460.2C629.0 460.4 635.5 461.5 636.9 462.0C638.2 462.5 636.0 462.8 635.0 463.0C634.1 463.3 632.9 463.6 631.3 463.4C629.7 463.2 626.5 462.2 625.4 461.7C624.2 461.3 624.1 460.8 624.4 460.6ZM389.9 467.0C389.5 467.0 388.8 467.5 388.4 468.4C387.9 469.2 387.3 471.0 387.2 472.1C387.1 473.3 387.4 474.6 387.7 475.3C388.0 476.0 388.6 476.3 389.2 476.4C389.7 476.4 390.3 476.3 390.8 475.7C391.2 475.1 391.7 474.1 391.8 472.9C391.8 471.8 391.5 469.8 391.2 468.8C390.9 467.9 390.4 467.1 389.9 467.0ZM680.3 465.7C681.5 465.4 686.1 465.0 688.0 465.0C689.9 465.1 691.6 465.7 691.9 466.0C692.2 466.3 691.2 466.7 689.9 466.9C688.6 467.1 685.5 467.0 684.0 467.0C682.5 466.9 681.3 466.8 680.7 466.6C680.1 466.3 679.0 466.0 680.3 465.7ZM545.4 488.4C549.8 488.3 554.6 488.1 556.6 488.2C558.7 488.3 558.0 488.8 557.6 489.2C557.2 489.5 557.2 489.9 554.4 490.4C551.6 490.9 545.3 491.6 540.9 491.9C536.5 492.2 532.9 491.8 528.2 492.2C523.4 492.6 517.6 493.3 512.3 494.3C507.0 495.3 501.6 496.6 496.2 498.2C490.8 499.8 485.6 501.5 479.9 503.9C474.1 506.3 467.4 509.4 461.7 512.7C456.0 516.0 451.0 520.3 445.6 523.6C440.2 526.8 434.7 529.8 429.3 532.3C423.9 534.8 420.5 536.2 413.4 538.4C406.2 540.5 392.8 543.8 386.4 545.4C380.0 547.0 381.4 547.1 374.8 547.8C368.3 548.6 356.5 550.0 347.0 550.0C337.6 549.9 325.2 548.7 318.3 547.7C311.4 546.8 308.5 545.3 305.6 544.4C302.8 543.4 299.2 541.7 301.2 542.0C303.1 542.2 311.6 544.9 317.3 545.7C322.9 546.6 327.7 546.8 335.0 547.0C342.3 547.2 354.6 547.1 360.9 546.9C367.2 546.7 368.0 546.5 372.7 545.7C377.5 545.0 382.8 544.0 389.4 542.4C396.0 540.8 406.1 538.0 412.1 536.1C418.1 534.3 420.3 533.5 425.3 531.3C430.3 529.1 435.1 527.1 442.0 523.0C448.9 518.9 458.9 510.9 466.7 506.7C474.5 502.5 483.1 500.1 488.9 497.9C494.7 495.7 497.6 494.8 501.7 493.7C505.7 492.5 508.4 491.9 513.1 491.1C517.9 490.4 524.7 489.5 530.1 489.1C535.5 488.6 541.0 488.6 545.4 488.4ZM556.4 509.8C557.0 509.5 557.6 509.9 557.9 510.1C558.2 510.4 558.0 508.5 558.3 511.1C558.7 513.8 559.8 522.9 559.9 526.0C560.0 529.1 559.4 528.9 558.7 529.7C558.1 530.5 557.1 530.9 556.1 530.7C555.0 530.6 553.0 529.7 552.2 528.8C551.4 527.9 550.9 527.8 551.2 525.1C551.6 522.3 553.5 514.9 554.3 512.3C555.2 509.8 555.8 510.2 556.4 509.8ZM555.7 519.1C555.2 519.0 554.6 519.4 554.2 520.3C553.8 521.1 553.3 522.9 553.2 524.1C553.2 525.2 553.5 526.4 553.8 527.1C554.2 527.8 554.7 528.2 555.2 528.3C555.7 528.4 556.4 528.2 556.8 527.7C557.2 527.1 557.6 526.1 557.7 525.0C557.7 523.9 557.3 522.0 557.0 521.0C556.6 520.1 556.2 519.2 555.7 519.1ZM767.5 525.9C768.5 524.6 768.6 526.0 769.0 526.2C769.3 526.5 769.1 524.6 769.6 527.4C770.1 530.2 771.7 539.7 771.9 542.9C772.0 546.1 771.4 545.8 770.6 546.6C769.8 547.4 768.2 547.8 767.0 547.8C765.9 547.8 764.5 547.4 763.6 546.4C762.7 545.5 761.6 544.0 761.6 542.0C761.5 539.9 762.2 536.8 763.2 534.2C764.1 531.5 766.5 527.2 767.5 525.9ZM766.7 533.1C766.1 532.9 765.2 533.6 764.8 534.8C764.3 535.9 764.1 538.6 764.0 540.0C764.0 541.4 764.2 542.5 764.7 543.3C765.2 544.1 766.3 544.5 767.0 544.6C767.7 544.7 768.4 544.3 768.8 543.9C769.3 543.5 769.6 543.5 769.5 542.1C769.4 540.7 768.8 537.2 768.3 535.7C767.9 534.2 767.3 533.2 766.7 533.1ZM511.9 554.1C515.0 555.6 527.2 563.3 532.0 566.0C536.8 568.7 538.5 569.3 540.7 570.3C543.0 571.2 542.6 571.1 545.4 571.6C548.3 572.0 552.7 572.9 558.0 573.0C563.3 573.1 570.9 572.1 577.0 572.0C583.1 571.9 589.9 571.8 594.8 572.2C599.8 572.5 601.6 573.0 606.7 574.3C611.8 575.6 617.9 578.3 625.3 579.7C632.7 581.2 643.4 582.4 651.0 583.0C658.6 583.5 664.9 583.4 670.8 582.8C676.8 582.3 680.9 581.3 686.6 579.6C692.2 577.9 699.7 575.2 704.6 572.6C709.6 570.1 714.1 565.8 716.2 564.4C718.3 563.0 717.8 563.5 717.3 564.4C716.7 565.3 714.5 568.1 712.7 569.7C711.0 571.3 709.0 572.7 707.0 574.0C704.9 575.2 703.7 575.9 700.3 577.3C696.9 578.7 690.7 581.1 686.3 582.3C681.9 583.6 681.0 584.5 673.9 584.9C666.9 585.4 652.3 585.5 644.0 585.0C635.7 584.5 630.7 583.3 624.1 581.9C617.5 580.5 609.7 577.8 604.4 576.6C599.1 575.4 599.7 574.8 592.5 574.7C585.3 574.6 569.3 576.2 561.0 576.0C552.7 575.8 547.5 574.8 542.5 573.5C537.4 572.3 534.4 570.2 530.7 568.3C526.9 566.4 522.7 564.1 519.8 562.2C516.9 560.3 514.6 558.1 513.3 556.7C511.9 555.4 508.7 552.6 511.9 554.1ZM242.2 562.8C242.8 562.8 243.3 560.4 243.5 564.0C243.7 567.7 244.0 580.1 243.5 584.5C243.1 589.0 241.6 589.3 240.7 590.7C239.8 592.1 238.8 592.4 237.9 592.9C237.1 593.3 236.2 593.5 235.3 593.3C234.5 593.2 233.6 592.8 233.0 592.0C232.3 591.3 231.5 591.2 231.5 588.8C231.5 586.5 232.3 581.3 233.1 578.1C233.9 574.9 235.3 571.8 236.4 569.4C237.6 567.1 239.2 565.2 240.1 564.1C241.1 563.0 241.7 562.8 242.2 562.8ZM448.2 569.0C448.8 569.1 449.5 569.6 449.8 571.2C450.2 572.8 449.7 575.2 450.3 578.7C450.9 582.3 452.9 589.5 453.3 592.6C453.6 595.7 453.0 595.9 452.5 597.5C452.0 599.1 451.0 601.1 450.3 602.3C449.6 603.5 449.2 604.0 448.5 604.5C447.8 605.0 446.8 605.4 446.0 605.4C445.2 605.4 444.3 605.1 443.4 604.5C442.6 604.0 441.6 603.2 440.9 602.1C440.1 601.1 439.2 599.4 438.7 598.3C438.3 597.1 437.7 598.0 438.2 595.1C438.7 592.2 440.4 584.8 441.7 580.7C443.1 576.6 445.5 572.5 446.5 570.6C447.6 568.6 447.7 568.9 448.2 569.0ZM239.4 571.3C239.0 570.6 238.7 571.2 238.3 571.5C238.0 571.9 237.9 571.1 237.3 573.3C236.6 575.4 234.9 581.9 234.4 584.4C233.9 587.0 234.1 587.6 234.4 588.6C234.7 589.6 235.3 590.2 236.0 590.2C236.7 590.2 237.9 589.6 238.7 588.7C239.5 587.8 240.4 586.8 240.7 584.7C241.0 582.6 240.7 578.1 240.5 575.9C240.3 573.7 239.8 572.1 239.4 571.3ZM407.5 578.4C407.7 577.7 412.9 592.9 414.8 600.2C416.6 607.6 417.7 615.7 418.7 622.3C419.7 628.9 420.6 635.5 420.7 640.0C420.8 644.5 420.1 646.5 419.3 649.3C418.6 652.2 417.9 654.1 416.3 657.3C414.7 660.5 411.3 666.0 409.6 668.6C407.9 671.2 406.4 672.6 405.9 672.8C405.4 673.0 405.1 672.9 406.7 669.7C408.2 666.4 413.3 657.2 415.1 653.1C416.9 649.1 416.9 647.6 417.4 645.4C417.9 643.2 418.0 642.5 418.0 640.0C418.0 637.5 418.2 636.3 417.5 630.3C416.8 624.4 415.2 613.1 413.6 604.4C411.9 595.8 407.3 579.1 407.5 578.4ZM446.0 579.0C445.5 579.0 445.1 579.2 444.5 580.5C443.8 581.8 442.5 584.6 441.9 586.9C441.3 589.1 441.0 592.0 441.0 594.0C441.0 596.0 441.4 597.8 441.9 599.1C442.5 600.3 443.6 601.1 444.3 601.6C445.0 602.2 445.4 602.3 446.0 602.3C446.6 602.3 447.1 602.1 447.6 601.6C448.2 601.1 448.8 600.8 449.2 599.2C449.7 597.6 450.8 595.1 450.4 592.0C450.1 588.9 448.1 582.9 447.3 580.7C446.6 578.5 446.4 579.0 446.0 579.0ZM495.4 596.6C496.4 596.5 496.1 595.5 498.8 597.2C501.4 598.9 508.0 604.7 511.2 606.8C514.4 608.9 516.2 609.4 518.0 610.0C519.8 610.6 520.4 610.8 521.8 610.6C523.2 610.4 525.3 608.9 526.5 608.7C527.7 608.4 528.4 608.8 528.9 609.2C529.4 609.6 529.6 610.3 529.6 611.0C529.7 611.7 530.0 611.7 529.2 613.3C528.5 614.8 525.6 618.8 525.0 620.2C524.4 621.6 524.9 621.0 525.6 621.6C526.3 622.2 526.4 622.7 529.0 624.0C531.7 625.2 536.2 627.5 541.7 629.3C547.3 631.0 554.7 632.9 562.5 634.5C570.2 636.1 579.2 637.8 588.2 638.8C597.1 639.9 607.5 640.6 616.0 641.0C624.5 641.4 632.8 641.2 639.0 641.0C645.1 640.8 647.0 640.8 652.8 639.8C658.7 638.9 670.8 635.6 674.1 635.1C677.4 634.6 674.0 636.2 672.9 636.9C671.7 637.6 671.0 638.1 667.1 639.1C663.3 640.1 660.2 642.2 649.8 642.8C639.5 643.5 616.4 643.3 605.1 642.9C593.8 642.6 589.2 641.8 582.2 640.8C575.1 639.9 569.6 638.9 562.6 637.4C555.7 635.8 545.6 633.0 540.5 631.5C535.3 630.0 534.5 629.5 531.7 628.3C529.0 627.0 525.8 624.8 524.0 624.0C522.1 623.3 521.5 623.4 520.5 623.7C519.5 624.0 518.5 624.9 517.9 625.9C517.4 627.0 517.1 628.6 517.2 629.8C517.3 631.1 517.8 632.1 518.6 633.4C519.5 634.7 520.4 635.9 522.3 637.7C524.2 639.5 527.2 642.2 529.9 644.1C532.6 646.1 531.6 645.7 538.4 649.6C545.2 653.4 562.7 663.3 570.7 667.3C578.8 671.2 581.4 671.6 586.7 673.3C592.1 674.9 597.9 676.3 602.6 677.4C607.4 678.5 609.9 679.0 615.3 679.7C620.7 680.5 629.0 681.6 635.1 681.9C641.2 682.3 643.9 683.1 651.7 681.7C659.5 680.4 676.4 675.2 681.8 673.8C687.1 672.5 683.2 673.6 683.6 673.7C683.9 673.8 684.6 673.8 683.9 674.5C683.3 675.1 684.6 675.9 679.5 677.5C674.4 679.2 660.3 683.2 653.4 684.4C646.5 685.6 645.2 685.4 638.0 685.0C630.8 684.5 616.6 682.6 610.3 681.7C604.0 680.8 604.2 680.7 600.3 679.7C596.4 678.8 591.8 677.7 586.9 676.1C582.0 674.5 579.5 674.7 570.7 670.3C561.9 665.9 542.0 654.7 534.1 649.9C526.1 645.2 526.0 644.3 523.0 642.0C520.0 639.6 520.2 637.4 516.2 635.8C512.2 634.1 503.0 633.2 498.9 632.1C494.8 631.0 493.5 630.2 491.7 629.3C489.9 628.4 489.6 627.9 488.3 626.7C486.9 625.6 484.8 623.4 483.8 622.2C482.8 621.0 482.5 621.8 482.4 619.7C482.3 617.5 481.7 612.9 483.4 609.3C485.2 605.7 491.0 600.1 493.0 598.0C495.0 595.9 494.5 596.7 495.4 596.6ZM496.9 599.9C496.2 599.8 495.9 600.2 495.7 600.7C495.6 601.2 494.8 601.6 496.0 603.1C497.1 604.5 501.4 608.0 502.6 609.4C503.8 610.8 503.6 611.1 503.3 611.6C502.9 612.1 502.3 613.1 500.6 612.3C498.8 611.6 494.0 607.6 492.8 607.2C491.6 606.7 492.8 608.4 493.5 609.6C494.1 610.7 496.3 612.9 496.9 614.1C497.5 615.2 497.5 615.9 497.2 616.4C496.8 616.9 496.5 617.9 494.9 617.0C493.2 616.0 488.6 611.6 487.3 610.8C486.0 610.0 486.3 611.1 487.1 612.2C487.8 613.3 490.8 616.1 491.7 617.3C492.6 618.6 492.4 619.2 492.4 619.8C492.5 620.3 492.3 620.5 492.0 620.7C491.7 620.9 491.5 621.3 490.6 621.0C489.7 620.6 487.3 618.7 486.5 618.6C485.8 618.4 485.5 618.9 486.2 620.0C486.9 621.1 489.4 624.0 490.8 625.2C492.1 626.5 491.5 626.5 494.4 627.6C497.4 628.6 505.5 630.9 508.5 631.5C511.5 632.2 511.1 632.8 512.4 631.4C513.8 630.1 514.7 625.4 516.3 623.3C518.0 621.3 520.7 621.0 522.3 619.3C524.0 617.7 525.6 614.5 526.0 613.4C526.5 612.3 526.2 612.9 525.1 612.9C524.0 612.9 521.5 613.8 519.5 613.5C517.5 613.1 515.4 612.0 513.2 610.8C511.0 609.7 508.6 608.2 506.4 606.6C504.2 604.9 501.7 602.0 500.1 600.9C498.5 599.8 497.7 599.9 496.9 599.9ZM354.4 615.4C358.8 615.0 361.5 615.0 364.8 615.2C368.2 615.3 372.5 615.9 374.7 616.3C377.0 616.7 377.5 617.0 378.4 617.6C379.2 618.3 379.3 618.5 379.9 620.1C380.4 621.8 381.1 624.6 381.6 627.4C382.0 630.3 382.5 633.1 382.5 637.2C382.4 641.4 382.6 647.2 381.4 652.4C380.2 657.6 378.3 663.2 375.5 668.5C372.6 673.8 366.6 681.2 364.2 684.2C361.9 687.2 362.4 685.9 361.4 686.4C360.3 686.8 362.3 687.4 358.0 687.0C353.6 686.5 340.8 685.0 335.3 683.7C329.7 682.5 327.2 681.1 324.4 679.6C321.7 678.0 320.1 675.7 318.8 674.2C317.4 672.7 317.3 673.5 316.4 670.6C315.4 667.8 313.5 664.3 313.0 657.0C312.5 649.7 313.2 632.2 313.4 626.8C313.6 621.5 309.8 626.5 314.0 625.0C318.2 623.4 331.7 619.0 338.5 617.5C345.2 615.9 350.0 615.8 354.4 615.4ZM354.3 618.3C349.5 618.7 343.7 618.9 337.4 620.4C331.2 622.0 320.4 626.1 316.8 627.7C313.1 629.3 315.7 628.0 315.6 630.0C315.5 632.1 316.1 636.0 316.0 640.0C315.9 644.0 314.6 649.0 315.1 653.9C315.5 658.8 316.9 665.4 318.7 669.3C320.5 673.1 323.9 675.4 325.9 677.1C327.8 678.9 328.6 678.9 330.4 679.6C332.2 680.3 332.0 680.5 336.6 681.4C341.2 682.3 353.9 684.4 357.9 684.7C361.9 685.1 359.5 684.6 360.7 683.7C361.8 682.7 362.7 681.9 364.9 678.9C367.1 675.9 371.8 669.3 373.8 665.8C375.8 662.3 376.2 661.0 377.1 658.1C378.1 655.2 379.1 652.1 379.6 648.6C380.0 645.1 380.2 641.2 379.9 637.1C379.6 633.0 378.6 626.9 377.9 624.1C377.2 621.3 377.9 621.1 375.9 620.1C373.9 619.1 369.5 618.4 365.9 618.1C362.3 617.8 359.0 617.9 354.3 618.3ZM709.5 617.9C710.5 617.0 710.6 618.0 710.9 618.2C711.2 618.4 711.3 616.5 711.4 619.2C711.6 622.0 712.0 631.8 711.8 634.8C711.7 637.9 711.4 636.9 710.6 637.6C709.8 638.2 708.4 638.9 707.1 638.7C705.8 638.5 703.5 637.6 702.5 636.5C701.5 635.4 701.2 633.5 701.2 632.1C701.1 630.7 701.6 629.6 702.2 628.2C702.8 626.8 703.5 625.4 704.7 623.7C705.9 622.0 708.4 618.8 709.5 617.9ZM707.8 624.0C707.3 624.0 706.4 624.4 705.7 625.7C705.0 626.9 704.0 630.0 703.8 631.4C703.6 632.9 703.9 633.7 704.5 634.6C705.1 635.4 706.4 636.2 707.2 636.4C707.9 636.6 708.5 636.3 708.9 635.8C709.3 635.4 709.7 635.7 709.6 634.0C709.6 632.2 709.1 627.0 708.8 625.3C708.5 623.6 708.3 623.9 707.8 624.0ZM436.4 634.5C436.8 632.9 437.7 636.7 437.9 640.1C438.1 643.4 438.1 650.6 437.5 654.5C437.0 658.4 436.1 660.0 434.5 663.5C432.8 667.0 429.3 673.0 427.6 675.6C425.9 678.2 426.1 677.6 424.1 679.1C422.2 680.7 421.4 682.4 415.9 684.9C410.4 687.4 393.6 693.8 391.2 694.2C388.8 694.7 397.2 689.7 401.5 687.5C405.8 685.3 412.9 683.3 416.9 680.9C421.0 678.6 423.2 676.5 425.6 673.6C428.0 670.7 430.0 666.5 431.5 663.5C433.0 660.5 433.9 657.9 434.6 655.6C435.3 653.3 435.5 653.3 435.8 649.8C436.1 646.3 436.1 636.2 436.4 634.5ZM345.1 641.9C344.7 640.2 345.9 641.7 346.3 641.9C346.7 642.2 346.8 641.5 347.6 643.4C348.5 645.3 351.0 651.2 351.5 653.4C352.0 655.6 351.2 655.8 350.6 656.6C350.0 657.5 348.3 658.1 347.6 658.4C346.9 658.7 346.8 658.5 346.5 658.4C346.2 658.2 345.7 658.1 345.9 657.4C346.2 656.7 347.7 655.1 348.1 654.3C348.5 653.4 348.8 654.4 348.3 652.3C347.8 650.3 345.4 643.6 345.1 641.9ZM369.8 645.9C370.7 645.9 370.0 646.6 369.6 646.9C369.3 647.2 368.6 647.7 367.7 647.7C366.8 647.7 363.8 647.3 364.1 647.0C364.5 646.7 368.8 645.9 369.8 645.9ZM325.1 646.9C326.2 647.0 331.8 648.4 332.7 648.9C333.7 649.3 331.6 649.6 330.9 649.7C330.2 649.8 329.3 649.7 328.5 649.5C327.7 649.2 326.4 648.7 325.8 648.3C325.2 647.8 323.9 646.8 325.1 646.9ZM521.6 698.6C523.9 696.6 523.6 698.2 524.8 698.3C525.9 698.4 527.2 698.4 528.7 699.3C530.2 700.3 532.8 701.8 534.0 704.0C535.1 706.3 534.7 710.3 535.5 712.5C536.2 714.7 537.9 716.1 538.3 717.4C538.8 718.6 538.4 719.2 538.2 720.2C537.9 721.3 537.5 722.6 536.7 723.7C535.8 724.7 537.2 724.5 533.3 726.3C529.5 728.1 518.1 733.0 513.5 734.5C509.0 736.1 508.2 735.6 505.9 735.8C503.5 736.0 503.3 735.1 499.5 735.7C495.8 736.3 492.1 737.7 483.4 739.4C474.8 741.1 459.1 744.2 447.7 745.7C436.3 747.2 422.9 748.1 415.0 748.4C407.1 748.8 406.0 748.4 400.1 747.9C394.1 747.5 385.4 746.6 379.3 745.7C373.2 744.8 367.4 743.4 363.6 742.4C359.8 741.4 357.9 740.3 356.5 739.5C355.0 738.8 355.0 738.5 355.0 738.2C355.0 737.9 352.9 737.0 356.5 737.8C360.0 738.5 369.7 741.5 376.3 742.7C382.9 743.9 387.7 744.5 396.2 744.8C404.6 745.2 418.5 745.3 426.9 744.9C435.3 744.6 436.8 744.3 446.7 742.7C456.7 741.2 478.4 737.2 486.6 735.6C494.8 734.0 493.6 733.8 496.0 733.0C498.3 732.1 499.5 731.3 500.5 730.6C501.6 729.8 502.0 729.5 502.1 728.7C502.2 727.9 501.8 726.6 501.1 725.9C500.4 725.2 502.5 724.2 498.0 724.4C493.5 724.5 483.3 726.6 474.0 727.0C464.7 727.4 451.8 727.4 442.0 727.0C432.3 726.6 422.2 725.4 415.4 724.6C408.6 723.7 406.4 723.3 401.2 721.8C396.1 720.3 389.8 717.8 384.4 715.6C379.0 713.3 371.8 709.9 368.7 708.3C365.6 706.8 366.4 706.8 365.8 706.2C365.3 705.6 362.5 703.6 365.4 704.7C368.4 705.7 377.8 710.3 383.4 712.6C389.0 714.8 393.7 716.6 398.9 718.1C404.1 719.6 407.6 720.6 414.4 721.6C421.3 722.6 429.8 723.6 440.0 724.0C450.3 724.4 466.6 724.5 476.0 724.0C485.3 723.5 492.4 721.7 496.0 721.0C499.6 720.3 496.7 721.0 497.6 719.6C498.4 718.1 499.8 714.2 501.1 712.1C502.3 710.0 503.7 708.0 505.0 707.0C506.2 705.9 507.4 705.3 508.5 705.9C509.5 706.5 508.9 711.7 511.1 710.5C513.3 709.3 519.3 700.7 521.6 698.6ZM520.3 705.3C520.0 704.4 518.9 705.5 517.3 707.3C515.7 709.1 512.4 714.4 511.0 716.0C509.5 717.5 509.6 716.7 508.8 716.8C508.1 716.8 507.3 717.0 506.6 716.4C505.8 715.8 505.1 712.9 504.1 713.2C503.1 713.6 501.1 717.2 500.5 718.4C499.8 719.6 499.4 719.4 500.2 720.4C501.0 721.4 504.2 722.7 505.5 724.5C506.7 726.4 506.6 730.3 507.6 731.5C508.7 732.7 510.1 732.1 511.8 731.8C513.6 731.6 514.9 731.4 518.1 730.1C521.3 728.8 528.5 725.9 531.3 724.3C534.1 722.8 534.1 721.8 534.8 720.8C535.4 719.9 535.2 719.0 535.1 718.5C535.0 718.0 535.2 717.4 534.2 718.0C533.2 718.6 530.4 721.4 529.1 722.0C527.8 722.7 526.8 722.3 526.3 722.0C525.8 721.7 525.3 721.6 526.2 720.0C527.0 718.4 530.3 714.1 531.2 712.2C532.1 710.4 531.7 709.3 531.6 708.7C531.5 708.1 531.4 707.5 530.5 708.7C529.6 710.0 527.5 714.8 526.3 716.3C525.1 717.8 524.6 718.1 523.3 717.5C522.1 716.9 519.4 714.7 518.9 712.7C518.4 710.6 520.6 706.2 520.3 705.3ZM567.2 717.0C567.9 716.9 568.5 717.6 568.5 718.9C568.5 720.3 567.3 722.5 567.2 725.1C567.1 727.8 568.0 732.7 567.8 734.8C567.6 736.9 566.8 737.3 565.9 737.9C565.0 738.5 563.3 738.8 562.3 738.6C561.2 738.3 560.1 737.6 559.6 736.4C559.2 735.2 558.6 734.2 559.5 731.5C560.3 728.7 563.4 722.1 564.7 719.7C566.0 717.3 566.6 717.2 567.2 717.0ZM277.3 719.9C278.4 719.2 278.5 719.9 278.7 721.2C278.8 722.6 277.9 725.0 278.2 727.9C278.5 730.7 280.3 736.0 280.7 738.3C281.1 740.6 281.2 740.5 280.8 741.8C280.4 743.2 279.5 745.4 278.4 746.4C277.3 747.4 275.3 747.7 274.1 747.7C272.9 747.8 272.1 747.2 271.4 746.6C270.7 746.0 270.1 746.1 269.8 744.2C269.4 742.3 268.7 738.3 269.2 735.2C269.6 732.0 271.2 728.1 272.5 725.5C273.9 723.0 276.3 720.6 277.3 719.9ZM564.0 727.1C563.6 727.0 563.1 727.6 562.6 728.6C562.2 729.6 561.4 732.0 561.3 733.1C561.1 734.2 561.4 734.8 561.7 735.3C562.0 735.8 562.5 736.2 563.0 736.2C563.5 736.2 564.1 736.0 564.5 735.4C564.9 734.9 565.4 733.9 565.5 732.8C565.6 731.8 565.3 729.9 565.0 729.0C564.8 728.0 564.4 727.1 564.0 727.1ZM274.9 728.0C273.9 726.6 273.1 729.8 272.4 731.4C271.8 733.1 271.1 736.1 271.1 738.0C271.0 739.9 271.5 741.8 272.1 742.9C272.8 744.0 273.9 744.5 274.9 744.5C275.8 744.5 277.2 743.5 277.8 742.8C278.4 742.1 279.0 742.6 278.5 740.1C278.1 737.7 275.9 729.5 274.9 728.0ZM678.3 732.6C682.1 732.4 684.6 732.9 686.7 733.3C688.8 733.7 689.4 734.0 690.9 735.1C692.5 736.1 695.0 738.2 696.1 739.9C697.3 741.5 697.9 742.2 697.9 745.0C697.8 747.9 697.1 751.9 695.8 756.8C694.5 761.6 691.8 770.1 690.1 774.1C688.4 778.1 687.2 779.3 685.7 780.7C684.2 782.1 683.8 782.6 681.0 782.7C678.2 782.8 672.8 782.3 668.9 781.1C665.0 779.9 660.1 777.4 657.4 775.6C654.7 773.8 653.9 772.6 652.7 770.3C651.5 768.0 650.3 766.3 650.1 761.9C649.8 757.6 650.7 748.1 651.2 744.2C651.7 740.2 651.0 739.7 653.1 738.1C655.2 736.5 659.4 735.5 663.6 734.6C667.8 733.7 674.4 732.8 678.3 732.6ZM678.2 735.3C674.2 735.3 668.1 736.6 664.5 737.5C660.8 738.3 658.0 739.2 656.2 740.2C654.4 741.3 654.2 742.0 653.7 743.7C653.1 745.3 653.1 746.5 653.0 750.0C652.9 753.5 652.7 761.2 653.3 764.7C654.0 768.2 654.6 769.0 656.9 771.1C659.1 773.2 664.5 775.9 666.9 777.1C669.3 778.4 669.4 778.3 671.3 778.7C673.2 779.1 676.5 779.5 678.1 779.6C679.8 779.6 680.1 779.5 681.1 779.1C682.1 778.7 683.0 778.6 684.2 777.2C685.4 775.7 686.9 773.6 688.3 770.3C689.7 767.1 691.5 761.8 692.6 757.6C693.6 753.3 694.6 747.8 694.7 745.0C694.8 742.2 694.1 742.2 693.1 740.9C692.2 739.6 691.2 738.2 688.8 737.2C686.3 736.3 682.3 735.3 678.2 735.3ZM670.6 750.2C671.0 749.8 671.6 750.0 671.7 751.2C671.8 752.5 671.2 756.0 671.4 757.7C671.6 759.3 672.9 760.4 673.0 761.2C673.1 762.0 672.4 762.3 671.9 762.3C671.4 762.3 670.3 761.7 669.8 761.2C669.4 760.6 669.2 760.2 669.1 758.9C669.0 757.6 669.0 754.7 669.3 753.3C669.5 751.8 670.2 750.5 670.6 750.2ZM660.5 753.4L661.5 753.6L660.5 753.4ZM627.5 755.9C628.5 754.7 628.6 755.9 628.9 756.1C629.2 756.4 629.3 756.0 629.3 757.1C629.4 758.2 628.7 759.6 629.2 762.8C629.6 766.1 631.6 773.8 632.1 776.7C632.6 779.6 632.7 778.2 632.2 780.3C631.6 782.5 629.6 787.8 628.7 789.7C627.7 791.5 627.3 791.0 626.4 791.4C625.5 791.7 624.1 791.9 623.2 791.8C622.2 791.6 621.2 791.3 620.5 790.5C619.9 789.6 619.2 789.9 619.2 786.8C619.1 783.8 619.5 776.2 620.2 772.2C620.8 768.2 621.7 765.6 622.9 762.9C624.1 760.2 626.5 757.0 627.5 755.9ZM680.5 755.9C681.0 755.8 683.5 756.4 683.6 756.6C683.6 756.8 681.3 757.2 680.8 757.1C680.3 756.9 680.1 755.9 680.5 755.9ZM623.2 787.9L624.5 788.5L623.2 787.9ZM455.4 803.8C456.6 803.1 456.6 803.9 456.9 804.1C457.2 804.4 457.3 804.0 457.3 805.1C457.4 806.2 456.9 808.0 457.2 810.8C457.4 813.6 458.9 819.4 458.9 821.9C458.9 824.5 458.1 825.2 457.1 826.1C456.1 827.0 454.3 827.5 453.1 827.5C452.0 827.5 450.7 826.7 450.0 826.0C449.2 825.4 448.7 826.0 448.5 823.5C448.3 821.0 448.6 813.4 448.8 810.9C449.0 808.5 448.7 810.0 449.8 808.8C450.9 807.6 454.3 804.6 455.4 803.8ZM453.1 814.9C452.7 814.9 452.1 815.7 451.9 816.2C451.7 816.7 451.3 817.5 451.8 817.9C452.4 818.3 454.9 819.0 455.3 818.7C455.8 818.4 455.0 817.0 454.7 816.3C454.3 815.7 453.6 814.9 453.1 814.9ZM451.7 821.3L452.0 822.1L451.7 821.3ZM645.9 834.9C643.7 835.2 639.1 837.3 636.9 837.9C634.6 838.4 632.9 838.6 632.2 838.2C631.5 837.9 632.8 835.9 632.6 835.8C632.5 835.6 632.9 834.4 631.1 837.1C629.3 839.8 623.0 849.0 621.7 851.7C620.4 854.3 622.4 853.3 623.4 853.0C624.4 852.6 626.4 850.1 627.5 849.7C628.7 849.3 630.0 849.3 630.1 850.5C630.2 851.8 628.5 855.4 628.1 857.1C627.8 858.9 627.9 860.6 628.2 861.2C628.4 861.8 629.0 861.9 629.8 860.7C630.6 859.5 632.1 855.5 633.1 854.1C634.0 852.6 634.7 852.1 635.4 851.8C636.1 851.6 636.8 852.0 637.2 852.7C637.7 853.3 637.4 855.8 637.9 855.8C638.5 855.8 639.8 853.2 640.7 852.7C641.5 852.3 642.6 851.8 643.0 853.0C643.4 854.2 642.8 859.0 643.1 859.9C643.4 860.9 643.9 859.8 644.8 858.8C645.8 857.8 647.6 854.5 648.6 853.8C649.5 853.0 650.2 853.6 650.7 854.2C651.2 854.9 651.3 857.3 651.7 857.7C652.0 858.2 652.4 857.8 653.0 856.9C653.5 855.9 654.2 855.3 654.9 851.9C655.5 848.4 656.6 839.1 656.7 836.3C656.9 833.5 656.9 834.9 655.8 834.9C654.7 834.9 651.6 836.2 649.9 836.2C648.3 836.2 648.0 834.6 645.9 834.9ZM330.0 846.6C327.8 846.5 323.6 848.8 321.7 849.7C319.8 850.5 319.3 851.1 318.7 851.6C318.1 852.2 316.6 853.5 318.1 853.1C319.5 852.7 325.3 850.1 327.5 849.5C329.7 848.9 330.1 848.6 331.2 849.6C332.3 850.6 333.9 854.2 334.3 855.5C334.6 856.7 334.1 856.3 333.1 857.1C332.1 857.9 329.2 859.4 328.4 860.1C327.5 860.8 327.7 861.1 328.2 861.2C328.6 861.3 329.7 861.5 330.9 860.9C332.2 860.3 334.5 858.3 335.8 857.8C337.0 857.2 337.9 857.3 338.5 857.6C339.1 857.9 339.7 858.5 339.2 859.4C338.7 860.4 336.1 862.4 335.4 863.3C334.7 864.2 334.7 864.8 335.0 865.0C335.3 865.3 335.8 865.5 337.0 864.9C338.1 864.2 340.9 861.8 342.0 861.1C343.1 860.3 343.2 860.4 343.8 860.6C344.4 860.8 345.3 861.1 345.4 862.2C345.5 863.3 344.5 865.9 344.4 867.0C344.3 868.1 344.5 868.4 345.0 869.0C345.5 869.6 346.3 870.5 347.3 870.5C348.2 870.6 349.4 871.3 350.4 869.4C351.5 867.6 352.5 862.0 353.5 859.5C354.4 856.9 355.6 855.5 356.1 854.1C356.5 852.7 359.7 851.8 356.2 851.2C352.7 850.5 339.4 850.9 335.0 850.2C330.6 849.4 332.2 846.7 330.0 846.6ZM357.4 847.5L357.8 848.0L357.4 847.5ZM620.4 854.4C620.0 854.1 618.4 856.1 617.9 856.9C617.4 857.6 617.5 858.2 617.6 858.8C617.6 859.3 617.9 860.0 618.3 859.9C618.8 859.9 620.0 859.3 620.4 858.4C620.7 857.4 620.8 854.6 620.4 854.4ZM326.9 854.5C326.3 854.6 324.5 855.3 323.8 855.7C323.2 856.2 322.7 857.0 323.1 857.1C323.5 857.2 325.4 856.6 326.2 856.2C326.9 855.8 327.6 855.1 327.7 854.8C327.8 854.5 327.6 854.3 326.9 854.5ZM636.4 858.4L635.8 859.8L636.4 858.4Z"/></svg>